<?xml version="1.0" encoding="utf-8"?>
<!-- Generator: Adobe Illustrator 16.0.0, SVG Export Plug-In . SVG Version: 6.00 Build 0)  -->
<!DOCTYPE svg PUBLIC "-//W3C//DTD SVG 1.1//EN" "http://www.w3.org/Graphics/SVG/1.1/DTD/svg11.dtd">
<svg version="1.1" id="Layer_1" xmlns="http://www.w3.org/2000/svg" xmlns:xlink="http://www.w3.org/1999/xlink" x="0px" y="0px"
	 width="24px" height="24px" viewBox="0 0 24 24" enable-background="new 0 0 24 24" xml:space="preserve">
<path fill="#31A249" d="M12,0c6.627,0,12,5.373,12,12s-5.373,12-12,12S0,18.627,0,12S5.373,0,12,0z M7.636,9.632
	c0,3.567,0.005,7.136-0.007,10.702c0,0.329,0.083,0.444,0.43,0.443c2.82-0.014,5.639-0.013,8.459,0
	c0.346,0.002,0.434-0.114,0.422-0.447c-0.068-1.885-0.115-3.771-0.174-5.657c-0.031-0.955-0.084-1.91-0.102-2.865
	c-0.018-0.903-0.002-1.807-0.002-2.728c0.072,0.037,0.182,0.086,0.285,0.141c0.754,0.408,1.516,0.805,2.258,1.233
	c0.293,0.169,0.434,0.111,0.602-0.165c0.41-0.669,0.84-1.324,1.283-1.972c0.146-0.214,0.143-0.337-0.057-0.518
	c-1.408-1.26-2.799-2.535-4.199-3.8c-0.105-0.092-0.244-0.165-0.381-0.198c-0.793-0.2-1.592-0.395-2.391-0.57
	c-0.121-0.026-0.291,0.01-0.396,0.081c-1.247,0.848-2.233,0.866-3.476,0.064C10.085,3.31,9.916,3.28,9.794,3.31
	C9.235,3.44,8.674,3.574,8.13,3.757C7.816,3.863,7.493,4.018,7.249,4.233c-1.148,1.015-2.271,2.058-3.403,3.09
	C3.505,7.636,3.164,7.948,2.808,8.276c0.589,0.904,1.161,1.782,1.744,2.68c1.039-0.625,2.031-1.22,3.084-1.851
	C7.636,9.339,7.636,9.485,7.636,9.632z"/>
</svg>
