<?xml version="1.0" encoding="utf-8"?>
<!-- Generator: Adobe Illustrator 16.0.0, SVG Export Plug-In . SVG Version: 6.00 Build 0)  -->
<!DOCTYPE svg PUBLIC "-//W3C//DTD SVG 1.1//EN" "http://www.w3.org/Graphics/SVG/1.1/DTD/svg11.dtd">
<svg version="1.1" id="Layer_1" xmlns="http://www.w3.org/2000/svg" xmlns:xlink="http://www.w3.org/1999/xlink" x="0px" y="0px"
	 width="24px" height="24px" viewBox="0 0 24 24" enable-background="new 0 0 24 24" xml:space="preserve">
<path fill="#E66625" d="M12,0c6.627,0,12,5.373,12,12c0,6.627-5.373,12-12,12C5.373,24,0,18.627,0,12C0,5.373,5.373,0,12,0z
	 M11.343,9.814c0-0.058-0.896-0.886,0-1.962c1.133-1.315,0-2.449,0-2.449l-0.238,0.239c0.057,0,0.896,0.896,0,1.972
	c-1.134,1.315,0,2.448,0,2.448L11.343,9.814z M18.879,11.548c-0.419-0.419-1.076-0.716-1.734-0.771l0,0H5.188
	c-0.065,0.238-0.065,0.477-0.065,0.657c0.36-0.056,0.781-0.056,1.318-0.056h10.704C17.803,11.377,18.46,11.434,18.879,11.548
	L18.879,11.548z M14.629,16.75c0.48-0.361,0.963-0.725,1.314-1.201c0.305,0.182,0.658,0.238,1.076,0.238
	c1.439,0,2.573-1.133,2.573-2.506c0-0.42-0.114-0.771-0.296-1.134c-0.182,0.124-0.6,0.238-1.14,0.238
	c0.183,0.239,0.302,0.544,0.302,0.896c0,0.781-0.657,1.429-1.439,1.429c-0.176,0-0.356-0.058-0.476-0.058
	c0.36-0.715,0.601-1.428,0.658-2.209h-0.06H6.44c-0.537,0-0.958,0-1.318-0.058c0.124,1.792,1.142,3.401,2.571,4.364
	c-1.972,0.172-3.287,0.534-3.287,0.896c0,0.533,3.106,0.953,6.937,0.953c3.831,0,6.937-0.42,6.937-0.953
	C18.277,17.227,16.783,16.922,14.629,16.75L14.629,16.75z M10.028,9.814c-0.058-0.058-0.896-0.886,0-1.962
	c1.133-1.315,0-2.449,0-2.449L9.79,5.641c0.057,0,0.896,0.896,0,1.972c-1.135,1.315,0,2.448,0,2.448L10.028,9.814z"/>
</svg>
