<?xml version="1.0" encoding="utf-8"?>
<!-- Generator: Adobe Illustrator 16.0.0, SVG Export Plug-In . SVG Version: 6.00 Build 0)  -->
<!DOCTYPE svg PUBLIC "-//W3C//DTD SVG 1.1//EN" "http://www.w3.org/Graphics/SVG/1.1/DTD/svg11.dtd">
<svg version="1.1" id="Layer_1" xmlns="http://www.w3.org/2000/svg" xmlns:xlink="http://www.w3.org/1999/xlink" x="0px" y="0px"
	 width="24px" height="24px" viewBox="0 0 24 24" enable-background="new 0 0 24 24" xml:space="preserve">
<g>
	<path fill-rule="evenodd" clip-rule="evenodd" fill="#CB123F" d="M23.577,12.534c-0.128,0.6-0.235,1.204-0.388,1.798
		c-1.36,5.343-6.219,8.957-11.717,8.729c-5.4-0.227-9.945-4.235-10.882-9.601C-0.272,8.523,2.266,3.472,6.741,1.222
		c0.183-0.092,0.373-0.17,0.646-0.293c0.424,0.969,0.836,1.918,1.278,2.935C5.73,5.325,3.991,7.646,3.706,10.912
		c-0.2,2.289,0.527,4.331,2.036,6.066c2.993,3.445,8.234,3.798,11.689,0.81c3.354-2.902,4.158-8.378,0.277-12.344
		c0.723-0.774,1.45-1.549,2.199-2.349c1.951,1.89,3.109,4.109,3.517,6.725c0.035,0.222,0.101,0.438,0.153,0.657
		C23.577,11.163,23.577,11.849,23.577,12.534z"/>
	<path fill-rule="evenodd" clip-rule="evenodd" fill="#CB123F" d="M14.011,16.372c-1.106-0.744-2.056-1.366-2.985-2.017
		c-0.417-0.291-0.104-0.55,0.104-0.786c1.33-1.505,2.662-3.008,3.993-4.512c0.146-0.165,0.281-0.339,0.355-0.588
		c-0.177,0.118-0.358,0.229-0.528,0.356c-1.713,1.29-3.434,2.571-5.131,3.882C9.39,13.04,9.041,13.08,8.6,12.751
		c-0.574-0.43-1.185-0.813-1.968-1.343c3.283-1.234,6.356-2.39,9.674-3.637C15.52,10.715,14.786,13.468,14.011,16.372z"/>
	<path fill-rule="evenodd" clip-rule="evenodd" fill="#CB123F" d="M10.338,15.772c0-0.375,0-0.751,0-1.211
		c0.248,0.174,0.461,0.32,0.736,0.512c-0.215,0.27-0.404,0.506-0.594,0.744C10.433,15.803,10.386,15.786,10.338,15.772z"/>
</g>
</svg>
