<?xml version="1.0" encoding="utf-8"?>
<!-- Generator: Adobe Illustrator 16.0.0, SVG Export Plug-In . SVG Version: 6.00 Build 0)  -->
<!DOCTYPE svg PUBLIC "-//W3C//DTD SVG 1.1//EN" "http://www.w3.org/Graphics/SVG/1.1/DTD/svg11.dtd">
<svg version="1.1" id="Layer_1" xmlns="http://www.w3.org/2000/svg" xmlns:xlink="http://www.w3.org/1999/xlink" x="0px" y="0px"
	 width="24px" height="24px" viewBox="0 0 24 24" enable-background="new 0 0 24 24" xml:space="preserve">
<path fill="#FF7A2E" d="M6.396,0.286c-0.254,0-0.473,0.179-0.508,0.43L5.378,4.281C5.361,4.394,5.36,4.421,5.347,4.519
	C3.185,6.295,1.813,8.99,1.813,12c0,3.012,1.372,5.705,3.534,7.48c0.015,0.1,0.015,0.125,0.031,0.24l0.511,3.564
	c0.035,0.25,0.254,0.43,0.508,0.43h10.188c0.254,0,0.475-0.18,0.509-0.43l0.509-3.564c0.018-0.115,0.02-0.141,0.033-0.24
	c1.786-1.467,3.024-3.57,3.405-5.951h0.637c0.282,0,0.511-0.229,0.511-0.51v-2.039c0-0.281-0.229-0.508-0.511-0.508H21.04
	c-0.381-2.383-1.619-4.486-3.405-5.954c-0.016-0.098-0.016-0.125-0.033-0.238l-0.509-3.566c-0.034-0.251-0.255-0.43-0.509-0.43
	H6.396z M11.49,3.341c4.789,0,8.66,3.87,8.66,8.659c0,4.789-3.871,8.66-8.66,8.66S2.831,16.789,2.831,12
	C2.831,7.211,6.701,3.341,11.49,3.341z M10.981,4.393c-3.816,0.249-6.85,3.283-7.1,7.099c0.27,0.013,0.478,0.236,0.478,0.509
	c0,0.274-0.209,0.496-0.478,0.51c0.25,3.816,3.283,6.85,7.1,7.1c0.014-0.268,0.236-0.479,0.509-0.479s0.495,0.211,0.51,0.479
	c3.814-0.25,6.85-3.283,7.099-7.1c-0.269-0.014-0.477-0.236-0.477-0.51c0-0.272,0.207-0.496,0.477-0.509
	C18.849,7.675,15.814,4.642,12,4.393c-0.015,0.269-0.237,0.477-0.51,0.477S10.995,4.661,10.981,4.393z M14.802,8.18
	c0.129,0,0.267,0.045,0.365,0.143c0.2,0.2,0.2,0.534,0,0.733l-2.69,2.69c0.022,0.084,0.032,0.165,0.032,0.254
	c0,0.091-0.01,0.171-0.032,0.255l1.417,1.417c0.2,0.199,0.2,0.533,0,0.732c-0.099,0.098-0.236,0.143-0.366,0.143
	s-0.267-0.045-0.364-0.143l-1.418-1.418c-0.085,0.021-0.164,0.033-0.255,0.033c-0.563,0-1.019-0.455-1.019-1.02
	c0-0.562,0.456-1.019,1.019-1.019c0.091,0,0.17,0.011,0.255,0.032l2.689-2.69C14.535,8.225,14.671,8.18,14.802,8.18z"/>
</svg>
