<?xml version="1.0" encoding="utf-8"?>
<!-- Generator: Adobe Illustrator 16.0.0, SVG Export Plug-In . SVG Version: 6.00 Build 0)  -->
<!DOCTYPE svg PUBLIC "-//W3C//DTD SVG 1.1//EN" "http://www.w3.org/Graphics/SVG/1.1/DTD/svg11.dtd">
<svg version="1.1" id="Layer_1" xmlns="http://www.w3.org/2000/svg" xmlns:xlink="http://www.w3.org/1999/xlink" x="0px" y="0px"
	 width="24px" height="24px" viewBox="0 0 24 24" enable-background="new 0 0 24 24" xml:space="preserve">
<circle fill="#EF5A79" cx="12" cy="12" r="12"/>
<path fill-rule="evenodd" clip-rule="evenodd" fill="#FEFEFE" d="M18.969,5.217c0.117,0.297,0.136,0.606,0.136,0.921
	c-0.006,2.635-0.021,5.267,0.008,7.9c0.008,0.881-0.303,1.479-1.148,1.768c-0.084,0.074-0.191,0.049-0.287,0.049
	c-3.207,0.002-6.412,0.002-9.619,0c-0.084,0-0.171,0.01-0.252-0.029c-0.43,0.258-0.724,0.666-1.08,1.004
	c-0.616,0.588-1.217,1.189-1.825,1.785c-0.004-1.822-0.011-3.648-0.012-5.469C4.886,10.81,4.89,8.473,4.89,6.137
	c0.001-1.178,0.52-1.704,1.681-1.705C10.19,4.431,13.81,4.44,17.428,4.424C18.104,4.421,18.617,4.642,18.969,5.217z M16.207,6.944
	H7.901V8.26h8.306V6.944z M16.312,8.989H8.003v1.316h8.309V8.989z M16.312,11.042H8.003v1.314h8.309V11.042z"/>
</svg>
