<?xml version="1.0" encoding="utf-8"?>
<!-- Generator: Adobe Illustrator 16.0.0, SVG Export Plug-In . SVG Version: 6.00 Build 0)  -->
<!DOCTYPE svg PUBLIC "-//W3C//DTD SVG 1.1//EN" "http://www.w3.org/Graphics/SVG/1.1/DTD/svg11.dtd">
<svg version="1.1" id="Layer_1" xmlns="http://www.w3.org/2000/svg" xmlns:xlink="http://www.w3.org/1999/xlink" x="0px" y="0px"
	 width="24px" height="24px" viewBox="0 0 24 24" enable-background="new 0 0 24 24" xml:space="preserve">
<g>
	<path fill="#CCCCCC" d="M10.676,10.629c-0.588-0.102-0.996,0.087-0.927,0.468c0.281,1.533,1.491,2.326,2.707,3.045
		c0.304,0.182,0.87-0.086,0.793-0.436C12.908,12.2,11.496,11.571,10.676,10.629z"/>
	<path fill="#CCCCCC" d="M8.446,12.55c-0.29-0.111-0.877,0.126-0.715,0.533c0.545,1.371,1.661,2.287,2.884,3.027
		c0.3,0.182,0.645-0.168,0.74-0.929C10.584,14.311,9.848,13.086,8.446,12.55z"/>
	<path fill="#CCCCCC" d="M6.46,14.342c-0.473,0.053-0.648,0.466-0.519,0.764c0.558,1.268,1.539,2.18,2.751,2.811
		c0.318,0.168,0.708-0.001,0.824-0.432C9.672,16.915,7.079,14.258,6.46,14.342z"/>
	<path fill="#CCCCCC" d="M12,0C5.373,0,0,5.373,0,12s5.373,12,12,12s12-5.373,12-12S18.627,0,12,0z M9.857,20.563
		c-0.88,0.267-1.628,0.037-2.286-0.516c-0.556-0.468-1.063-0.997-1.579-1.511c-3.677-3.657-3.594-5.239,0.524-8.398
		c1.006-0.771,2.118-1.424,3.232-2.036c3.101-1.706,5.574-0.929,7.212,2.213c0.117,0.233,0.202,0.484,0.251,0.605
		C17.214,13.289,12.085,19.887,9.857,20.563z M18.178,9.045c-0.373,0.195-3.533-3.086-3.307-3.401
		c0.787-1.105,1.604-2.387,3.152-2.314c1.552,0.074,2.409,1.112,2.649,2.664C20.359,7.444,19.413,8.396,18.178,9.045z"/>
</g>
</svg>
