<?xml version="1.0" encoding="utf-8"?>
<!-- Generator: Adobe Illustrator 16.0.0, SVG Export Plug-In . SVG Version: 6.00 Build 0)  -->
<!DOCTYPE svg PUBLIC "-//W3C//DTD SVG 1.1//EN" "http://www.w3.org/Graphics/SVG/1.1/DTD/svg11.dtd">
<svg version="1.1" id="Layer_1" xmlns="http://www.w3.org/2000/svg" xmlns:xlink="http://www.w3.org/1999/xlink" x="0px" y="0px"
	 width="24px" height="24px" viewBox="0 0 24 24" enable-background="new 0 0 24 24" xml:space="preserve">
<path fill="#F25509" d="M12,0c6.627,0,12,5.373,12,12s-5.373,12-12,12S0,18.627,0,12S5.373,0,12,0z M7.786,12.217
	c0.537,0.269,0.972,0.661,1.366,1.106c0.461,0.527,0.842,1.112,1.175,1.728c0.255,0.466,0.498,0.939,0.768,1.395
	c0.331,0.56,0.731,1.065,1.223,1.499c0.46,0.4,0.981,0.686,1.577,0.837c0.458,0.115,0.923,0.152,1.393,0.155
	c1.336,0.007,2.672-0.008,4.001-0.15c0.374-0.042,0.748-0.092,1.109-0.2c0.142-0.043,0.278-0.106,0.413-0.174
	c0.076-0.037,0.146-0.104,0.149-0.195c0.005-0.298,0.012-0.597,0-0.893c-0.02-0.378-0.182-0.697-0.442-0.967
	c-0.227-0.237-0.497-0.418-0.778-0.577c-1.015-0.582-2.085-1.052-3.156-1.517c-0.026-0.01-0.069-0.005-0.095,0.011
	c-0.618,0.394-1.296,0.567-2.029,0.509c-0.354-0.028-0.694-0.117-1.023-0.253c-0.604-0.249-1.113-0.633-1.574-1.088
	c-0.551-0.545-1.002-1.167-1.406-1.824C9.713,10.415,8.947,9.231,8.11,8.092C7.516,7.284,6.9,6.497,6.198,5.779
	c-0.237-0.24-0.483-0.473-0.758-0.67C5.348,5.044,5.346,5.043,5.274,5.124C5.181,5.228,5.087,5.331,4.998,5.437
	C4.574,5.949,4.205,6.499,3.935,7.11C3.767,7.492,3.648,7.89,3.613,8.307c-0.026,0.318,0,0.634,0.078,0.943
	c0.115,0.459,0.229,0.92,0.371,1.373c0.471,1.505,0.899,3.02,1.091,4.59c0.054,0.424,0.101,0.854,0.132,1.279
	c0.03,0.396,0.036,0.795,0.053,1.19c0.007,0.183-0.006,0.367,0.024,0.548c0.073,0.433,0.488,0.767,0.97,0.699
	c0.473-0.064,0.76-0.48,0.758-0.893c-0.006-1.979-0.003-3.958-0.003-5.938c0-0.029,0-0.06,0-0.097
	C7.341,12.026,7.568,12.108,7.786,12.217z"/>
</svg>
