<?xml version="1.0" encoding="utf-8"?>
<!-- Generator: Adobe Illustrator 16.0.0, SVG Export Plug-In . SVG Version: 6.00 Build 0)  -->
<!DOCTYPE svg PUBLIC "-//W3C//DTD SVG 1.1//EN" "http://www.w3.org/Graphics/SVG/1.1/DTD/svg11.dtd">
<svg version="1.1" id="Layer_1" xmlns="http://www.w3.org/2000/svg" xmlns:xlink="http://www.w3.org/1999/xlink" x="0px" y="0px"
	 width="24px" height="24px" viewBox="0 0 24 24" enable-background="new 0 0 24 24" xml:space="preserve">
<path fill="#5CB8A1" d="M12,0c6.627,0,12,5.373,12,12s-5.373,12-12,12S0,18.627,0,12S5.373,0,12,0z M10.161,15.521
	c0.113,0.124,0.317,0.218,0.486,0.229c0.571,0.035,1.144,0.02,1.716,0.037c2.777,0.081,5.555,0.107,8.318-0.217
	c0.666-0.078,1.331-0.288,1.96-0.53c0.424-0.166,0.457-0.486,0.175-0.854c-0.453-0.593-1.045-0.998-1.771-1.187
	c-1.834-0.477-3.668-0.949-5.502-1.429c-0.752-0.197-1.421-0.542-1.986-1.095c-0.749-0.73-1.531-1.427-2.289-2.148
	c-0.185-0.175-0.336-0.216-0.588-0.109C10.182,8.43,9.669,8.627,9.145,8.759c-1.88,0.476-3.759,0.704-5.603-0.18
	c-0.09-0.043-0.289,0.029-0.376,0.112c-0.587,0.568-0.867,1.292-0.941,2.09c-0.158,1.704,0.346,3.336,0.509,5.037
	c1.541,0,3.032,0.003,4.522-0.011c0.092-0.001,0.208-0.116,0.27-0.208c0.38-0.565,0.746-1.137,1.174-1.794
	C9.222,14.425,9.678,14.986,10.161,15.521z"/>
</svg>
