<?xml version="1.0" encoding="utf-8"?>
<!-- Generator: Adobe Illustrator 16.0.0, SVG Export Plug-In . SVG Version: 6.00 Build 0)  -->
<!DOCTYPE svg PUBLIC "-//W3C//DTD SVG 1.1//EN" "http://www.w3.org/Graphics/SVG/1.1/DTD/svg11.dtd">
<svg version="1.1" id="Layer_1" xmlns="http://www.w3.org/2000/svg" xmlns:xlink="http://www.w3.org/1999/xlink" x="0px" y="0px"
	 width="24px" height="24px" viewBox="0 0 24 24" enable-background="new 0 0 24 24" xml:space="preserve">
<path fill="#92278F" d="M12,0c6.627,0,12,5.373,12,12s-5.373,12-12,12S0,18.627,0,12S5.373,0,12,0z M8.344,3.977
	c0.045,0.471,0.047,0.95,0.02,1.422C8.31,6.312,8.425,7.198,8.872,7.996c0.422,0.755,0.384,1.464,0.056,2.233
	c-0.346,0.813-0.664,1.643-0.917,2.488c-0.744,2.497-0.864,5.072-0.869,7.657c0,0.073,0.068,0.18,0.133,0.214
	c0.292,0.157,0.587,0.314,0.894,0.434c1.732,0.687,3.529,0.838,5.362,0.597c1.082-0.143,2.116-0.444,3.084-0.962
	c0.176-0.094,0.25-0.198,0.24-0.402c-0.06-1.178-0.078-2.357-0.164-3.531c-0.139-1.91-0.522-3.771-1.241-5.555
	c-0.253-0.629-0.465-1.275-0.671-1.92c-0.045-0.137-0.022-0.318,0.026-0.458c0.114-0.327,0.257-0.646,0.399-0.963
	c0.319-0.705,0.457-1.442,0.424-2.214c-0.046-1.021-0.075-2.041,0.313-3.038c-0.311-0.102-0.604-0.198-0.902-0.298
	C15,2.387,14.971,2.468,14.939,2.549c-0.286,0.745-0.655,1.441-1.232,2.006c-1.024,1.004-2.377,1.009-3.409,0.015
	C9.807,4.095,9.464,3.519,9.193,2.898C9.106,2.698,9.029,2.491,8.941,2.274C8.639,2.376,8.351,2.473,8.099,2.558
	C8.187,3.048,8.301,3.51,8.344,3.977z"/>
</svg>
