<?xml version="1.0" encoding="utf-8"?>
<!-- Generator: Adobe Illustrator 16.0.0, SVG Export Plug-In . SVG Version: 6.00 Build 0)  -->
<!DOCTYPE svg PUBLIC "-//W3C//DTD SVG 1.1//EN" "http://www.w3.org/Graphics/SVG/1.1/DTD/svg11.dtd">
<svg version="1.1" id="Layer_1" xmlns="http://www.w3.org/2000/svg" xmlns:xlink="http://www.w3.org/1999/xlink" x="0px" y="0px"
	 width="30px" height="30px" viewBox="-3 -3 30 30" enable-background="new -3 -3 30 30" xml:space="preserve">
<path fill="#FF0000" d="M12-3c8.283,0,15,6.716,15,15c0,8.283-6.717,15-15,15C3.716,27-3,20.283-3,12C-3,3.716,3.716-3,12-3z
	 M10.279,14.61c-2.373,2.63-4.628,5.126-4.628,5.126c-0.385,0.426-0.34,1.104,0.105,1.509c0.447,0.403,1.127,0.375,1.511-0.048
	c0,0,2.16-2.393,4.474-4.957l-0.005-0.009c1.907,2.12,3.675,4.088,4.937,5.489c0.388,0.426,1.048,0.462,1.479,0.075
	c0.432-0.386,0.462-1.064,0.065-1.497c0,0-4.224-4.766-4.641-5.229c-0.076-0.027-0.261-0.11-0.482-0.251l-0.042-0.028
	c1.712-1.895,3.298-3.655,3.943-4.367c0.209,0.037,0.557,0.053,1.086,0.035c0.667,0.002,1.327-0.24,1.829-0.718L23.5,5.016
	l-0.473-0.435L18.74,9.329l-0.477-0.436l4.285-4.745l-0.512-0.464L17.72,8.461L17.248,8.03l4.314-4.775l-0.548-0.497l-4.312,4.778
	l-0.477-0.432l4.315-4.774l-0.437-0.394l-4.214,3.906c-0.563,0.623-0.767,1.458-0.62,2.247c0.005,0.412,0.025,0.712,0.05,0.934
	c-0.632,0.701-2.004,2.222-3.524,3.904l-0.001,0.045c-0.008-0.348,0.094-0.729,0.363-1.149C4.141,2.499,0.5,3.738,0.5,3.738
	S5.526,9.327,10.279,14.61z"/>
</svg>
