<?xml version="1.0" encoding="utf-8"?>
<!-- Generator: Adobe Illustrator 16.0.0, SVG Export Plug-In . SVG Version: 6.00 Build 0)  -->
<!DOCTYPE svg PUBLIC "-//W3C//DTD SVG 1.1//EN" "http://www.w3.org/Graphics/SVG/1.1/DTD/svg11.dtd">
<svg version="1.1" id="Layer_1" xmlns="http://www.w3.org/2000/svg" xmlns:xlink="http://www.w3.org/1999/xlink" x="0px" y="0px"
	 width="24px" height="24px" viewBox="0 0 24 24" enable-background="new 0 0 24 24" xml:space="preserve">
<g>
	<path fill="#120053" d="M12,0C5.373,0,0,5.373,0,12c0,6.627,5.373,12,12,12c6.627,0,12-5.373,12-12C24,5.373,18.627,0,12,0z
		 M15.604,21.945c-2.399-0.036-4.799-0.01-7.201-0.01c-1.255,0-2.081-0.807-2.113-2.068c-0.005-0.247,0-0.495,0-0.743
		c0-4.95,0-9.899-0.003-14.848c0-0.725,0.196-1.352,0.795-1.81c0.353-0.273,0.759-0.407,1.2-0.408c2.475-0.006,4.946-0.008,7.423,0
		c1.097,0.003,2,0.922,2.002,2.021c0.003,2.643-0.001,5.282-0.001,7.922c0,2.606-0.021,5.213,0.008,7.819
		C17.727,20.964,16.759,21.965,15.604,21.945z"/>
	<path fill="#120053" d="M16.361,3.432c-2.91,0-5.824,0-8.735,0C7.078,3.434,6.897,3.605,6.897,4.161
		c-0.003,4.385-0.003,8.771,0,13.153c0,0.563,0.184,0.738,0.749,0.738c2.896,0,5.792,0,8.687,0c0.563,0,0.771-0.209,0.771-0.781
		c0-2.176,0-4.354,0-6.528c0-2.193,0.002-4.385,0-6.578C17.104,3.644,16.889,3.432,16.361,3.432z"/>
	<path fill="#120053" d="M11.99,18.977c-0.509,0.004-0.927,0.424-0.932,0.934c-0.002,0.515,0.428,0.939,0.953,0.936
		c0.511-0.007,0.929-0.422,0.929-0.931C12.943,19.398,12.512,18.973,11.99,18.977z"/>
</g>
</svg>
