<?xml version="1.0" encoding="utf-8"?>
<!-- Generator: Adobe Illustrator 16.0.0, SVG Export Plug-In . SVG Version: 6.00 Build 0)  -->
<!DOCTYPE svg PUBLIC "-//W3C//DTD SVG 1.1//EN" "http://www.w3.org/Graphics/SVG/1.1/DTD/svg11.dtd">
<svg version="1.1" id="Layer_1" xmlns="http://www.w3.org/2000/svg" xmlns:xlink="http://www.w3.org/1999/xlink" x="0px" y="0px"
	 width="24px" height="24px" viewBox="0 0 24 24" enable-background="new 0 0 24 24" xml:space="preserve">
<circle fill="#FF7A2E" cx="12" cy="12" r="12"/>
<g>
	<path fill-rule="evenodd" clip-rule="evenodd" fill="#FFFFFF" d="M11.982,7.042c1.991,0,3.983,0.009,5.976-0.006
		c0.385-0.003,0.535,0.085,0.532,0.511c-0.017,3.675-0.008,7.351-0.01,11.026c0,0.83-0.346,1.206-1.163,1.326
		c-0.118,0.018-0.263,0.159-0.313,0.278c-0.132,0.316-0.36,0.446-0.682,0.452c-0.333,0.007-0.635-0.079-0.718-0.443
		c-0.061-0.261-0.2-0.302-0.428-0.301c-2.115,0.004-4.231-0.003-6.346,0.015C8.7,19.9,8.507,20.046,8.453,20.172
		c-0.154,0.358-0.416,0.473-0.771,0.458c-0.328-0.016-0.537-0.157-0.646-0.487C7,20.031,6.816,19.911,6.689,19.897
		c-0.826-0.086-1.206-0.468-1.207-1.277C5.48,14.929,5.488,11.238,5.471,7.547C5.469,7.122,5.617,7.032,6.005,7.035
		C7.996,7.05,9.988,7.042,11.982,7.042z M11.977,8.494c-2.503,0.001-4.581,2.067-4.593,4.545c-0.011,2.367,1.813,4.597,4.596,4.65
		c2.491,0.047,4.597-2.12,4.596-4.606C16.576,10.569,14.495,8.493,11.977,8.494z"/>
	<path fill-rule="evenodd" clip-rule="evenodd" fill="#FFFFFF" d="M11.933,6.09c-1.977,0-3.953-0.014-5.928,0.01
		C5.566,6.105,5.437,5.966,5.474,5.549c0.033-0.368-0.006-0.741,0.011-1.111C5.511,3.806,5.96,3.371,6.583,3.371
		c3.597-0.002,7.194-0.003,10.791,0c0.624,0,1.055,0.427,1.106,1.071c0.132,1.648,0.132,1.648-1.499,1.648
		C15.298,6.09,13.615,6.09,11.933,6.09z M7.994,5.213c0.402,0,0.803-0.009,1.204,0.002c0.3,0.008,0.358-0.154,0.356-0.408
		C9.55,4.554,9.539,4.338,9.201,4.341C8.398,4.345,7.596,4.347,6.794,4.339C6.457,4.337,6.441,4.549,6.439,4.802
		C6.436,5.054,6.49,5.223,6.792,5.215C7.193,5.205,7.593,5.212,7.994,5.213z M16.45,5.489c1.036-0.017,0.888,0.14,0.9-0.918
		c0.001-0.046,0.02-0.111-0.004-0.136c-0.096-0.104-0.198-0.272-0.31-0.282c-0.398-0.034-0.802-0.006-1.204-0.017
		c-0.239-0.006-0.326,0.096-0.323,0.332C15.526,5.698,15.381,5.462,16.45,5.489z M14.007,4.07c-0.366,0.012-0.688,0.363-0.673,0.735
		c0.017,0.385,0.347,0.698,0.72,0.682c0.371-0.017,0.703-0.367,0.687-0.725C14.726,4.413,14.35,4.059,14.007,4.07z M12.032,5.487
		c0.378-0.011,0.693-0.354,0.674-0.735c-0.019-0.366-0.333-0.677-0.691-0.681c-0.391-0.004-0.699,0.344-0.678,0.766
		C11.355,5.213,11.66,5.498,12.032,5.487z"/>
	<path fill-rule="evenodd" clip-rule="evenodd" fill="none" d="M11.977,8.494c2.518-0.001,4.599,2.075,4.599,4.589
		c0.001,2.486-2.105,4.653-4.596,4.606c-2.783-0.054-4.606-2.283-4.596-4.65C7.396,10.561,9.474,8.495,11.977,8.494z M7.673,13.082
		c-0.002,2.313,1.913,4.27,4.141,4.316c2.515,0.054,4.483-1.968,4.468-4.313c-0.015-2.394-1.891-4.292-4.279-4.294
		C9.578,8.789,7.675,10.673,7.673,13.082z"/>
	<path fill-rule="evenodd" clip-rule="evenodd" fill="none" d="M7.994,5.212c-0.4,0-0.801-0.008-1.202,0.003
		C6.49,5.223,6.436,5.054,6.439,4.802c0.002-0.253,0.018-0.465,0.355-0.463c0.802,0.008,1.604,0.006,2.406,0.001
		c0.338-0.002,0.35,0.213,0.354,0.466c0.002,0.254-0.057,0.417-0.356,0.408C8.796,5.204,8.396,5.213,7.994,5.212z"/>
	<path fill-rule="evenodd" clip-rule="evenodd" fill="none" d="M16.45,5.489c-1.069-0.026-0.924,0.209-0.94-1.021
		c-0.003-0.236,0.084-0.337,0.323-0.332c0.402,0.01,0.806-0.018,1.204,0.017c0.111,0.01,0.214,0.177,0.31,0.282
		c0.023,0.025,0.005,0.09,0.004,0.136C17.338,5.628,17.486,5.472,16.45,5.489z"/>
	<path fill-rule="evenodd" clip-rule="evenodd" fill="none" d="M14.007,4.07c0.343-0.011,0.719,0.343,0.733,0.692
		c0.017,0.358-0.315,0.708-0.687,0.725c-0.373,0.016-0.703-0.297-0.72-0.682C13.319,4.433,13.641,4.082,14.007,4.07z"/>
	<path fill-rule="evenodd" clip-rule="evenodd" fill="none" d="M12.032,5.487c-0.372,0.011-0.677-0.273-0.694-0.65
		c-0.021-0.422,0.287-0.77,0.678-0.766c0.357,0.004,0.672,0.315,0.691,0.681C12.725,5.132,12.41,5.476,12.032,5.487z"/>
	<path fill-rule="evenodd" clip-rule="evenodd" fill="#FFFFFF" d="M7.673,13.082c0.002-2.409,1.904-4.293,4.33-4.291
		c2.388,0.003,4.264,1.9,4.279,4.294c0.015,2.345-1.953,4.366-4.468,4.313C9.586,17.352,7.671,15.395,7.673,13.082z M11.932,17.19
		c2.22,0.038,4.128-1.813,4.167-4.04c0.038-2.236-1.824-4.15-4.074-4.185c-2.195-0.035-4.119,1.814-4.16,4
		C7.821,15.262,9.641,17.152,11.932,17.19z"/>
	<path fill-rule="evenodd" clip-rule="evenodd" fill="#FFFFFF" d="M13.835,12.818c-0.595-0.199-0.595-0.199-1.427,0.51
		c0.038-0.482-0.042-0.929-0.537-1.042c-0.226-0.052-0.563,0.053-0.741,0.209c-0.335,0.291-0.298,0.681-0.03,1.095
		c-0.592-0.555-1.119-0.237-1.674-0.001c-0.684,0.291-1.066-0.003-1.014-0.728c0.131-1.783,1.523-3.207,3.211-3.328
		c2.013-0.145,3.464,1.096,3.877,2.85c0.041,0.179,0.039,0.369,0.05,0.552c0.052,0.847-0.175,1.013-0.979,0.765
		c0.174-0.063,0.416-0.093,0.568-0.224c0.159-0.139,0.304-0.367,0.33-0.572c0.054-0.386-0.209-0.641-0.544-0.769
		C14.49,11.969,14.193,12.172,13.835,12.818z M10.978,11.076c-0.01,0.358,0.26,0.652,0.617,0.673c0.35,0.02,0.713-0.301,0.72-0.638
		c0.009-0.343-0.327-0.675-0.683-0.672C11.279,10.44,10.986,10.727,10.978,11.076z M13.626,12.46c0.1-0.142,0.313-0.326,0.356-0.544
		c0.067-0.34-0.156-0.546-0.511-0.544c-0.324,0.002-0.524,0.183-0.535,0.507C12.924,12.231,13.139,12.401,13.626,12.46z"/>
	<path fill-rule="evenodd" clip-rule="evenodd" fill="#FFFFFF" d="M15.093,12.479c0.009,0.216,0.084,0.46,0.007,0.641
		c-0.058,0.136-0.339,0.286-0.474,0.25c-0.19-0.049-0.34-0.265-0.505-0.407c0.342-0.166,0.59-0.286,0.838-0.405
		C15.003,12.53,15.048,12.504,15.093,12.479z"/>
	<path fill-rule="evenodd" clip-rule="evenodd" fill="#FFFFFF" d="M11.123,13.091c0.323-0.171,0.561-0.296,0.873-0.461
		c0.023,0.133,0.117,0.349,0.068,0.525c-0.035,0.123-0.284,0.287-0.404,0.262C11.462,13.379,11.293,13.203,11.123,13.091z"/>
	<path fill-rule="evenodd" clip-rule="evenodd" fill="#FFFFFF" d="M13.598,12.999c0.081,0.148,0.153,0.281,0.261,0.478
		c-0.262,0-0.435,0-0.668,0C13.332,13.31,13.445,13.177,13.598,12.999z"/>
	<path fill-rule="evenodd" clip-rule="evenodd" fill="none" d="M10.978,11.076c0.008-0.349,0.301-0.636,0.654-0.637
		c0.355-0.003,0.691,0.329,0.683,0.672c-0.007,0.337-0.37,0.657-0.72,0.638C11.238,11.728,10.968,11.434,10.978,11.076z
		 M11.21,11.202c0.133,0.082,0.275,0.217,0.439,0.256c0.087,0.021,0.276-0.101,0.309-0.195c0.044-0.135-0.014-0.305-0.029-0.475
		C11.659,10.944,11.478,11.047,11.21,11.202z"/>
	<path fill-rule="evenodd" clip-rule="evenodd" fill="none" d="M13.626,12.46c-0.487-0.06-0.702-0.229-0.689-0.581
		c0.011-0.324,0.211-0.505,0.535-0.507c0.354-0.002,0.578,0.204,0.511,0.544C13.939,12.134,13.726,12.319,13.626,12.46z"/>
	<path fill-rule="evenodd" clip-rule="evenodd" fill="#FFFFFF" d="M11.21,11.202c0.268-0.154,0.448-0.258,0.719-0.414
		c0.016,0.17,0.073,0.34,0.029,0.475c-0.032,0.095-0.222,0.217-0.309,0.195C11.486,11.418,11.343,11.284,11.21,11.202z"/>
</g>
</svg>
