<?xml version="1.0" encoding="utf-8"?>
<!-- Generator: Adobe Illustrator 16.0.0, SVG Export Plug-In . SVG Version: 6.00 Build 0)  -->
<!DOCTYPE svg PUBLIC "-//W3C//DTD SVG 1.1//EN" "http://www.w3.org/Graphics/SVG/1.1/DTD/svg11.dtd">
<svg version="1.1" id="Layer_1" xmlns="http://www.w3.org/2000/svg" xmlns:xlink="http://www.w3.org/1999/xlink" x="0px" y="0px"
	 width="24px" height="24px" viewBox="0 0 24 24" enable-background="new 0 0 24 24" xml:space="preserve">
<g>
	<path fill="#FF45C6" d="M18.391,16.479c-0.111,0.09-0.217,0.187-0.358,0.309c-0.093-0.076-0.149-0.126-0.21-0.178
		c-0.444-0.396-0.891-0.459-1.241-0.178c-0.353,0.289-0.427,0.793-0.046,1.248c0.385,0.457,0.871,0.824,1.324,1.221
		c0.065,0.057,0.234,0.078,0.305,0.031c0.607-0.387,1.218-0.789,1.516-1.484c0.164-0.383,0.133-0.768-0.231-1.031
		C19.096,16.161,18.727,16.201,18.391,16.479z"/>
	<path fill="#FF45C6" d="M12,0C5.373,0,0,5.373,0,12c0,6.627,5.373,12,12,12c6.627,0,12-5.373,12-12C24,5.373,18.627,0,12,0z
		 M20.693,17.684c-0.442,1.217-1.473,1.857-2.537,2.441c-0.067,0.039-0.198,0.035-0.272-0.005c-0.94-0.531-1.856-1.106-2.358-2.117
		c-0.695-1.382,0.145-2.812,1.735-2.804c0.479,0.26,1.077,0.057,1.689,0.031C20.251,15.176,21.139,16.457,20.693,17.684z
		 M20.869,14.667c-0.117,0.036-0.253,0.054-0.37,0.032c-0.448-0.084-0.894-0.188-1.376-0.29c0.063-0.195,0.145-0.451,0.22-0.693
		c1.687-0.007,2.476-0.571,2.457-1.736c-0.019-1.184-0.782-1.726-2.411-1.709c-0.236-0.557-0.431-1.137-0.724-1.666
		c-1.188-2.162-3.022-3.486-5.455-3.842c-0.772-0.112-1.624,0.097-2.404,0.295C10.331,5.182,9.836,5.541,9.85,6.14
		c0.015,0.57,0.525,0.774,0.974,0.945c0.678,0.257,1.379,0.33,2.06,0.007c0.168-0.081,0.282-0.275,0.421-0.419
		c-0.158-0.142-0.306-0.373-0.481-0.402c-0.337-0.058-0.697-0.04-1.03,0.025c-0.295,0.058-0.566,0.052-0.608-0.255
		c-0.032-0.221,0.066-0.581,0.229-0.685c0.865-0.554,2.344-0.108,2.818,0.802c0.246,0.471,0.197,0.935-0.156,1.334
		c-0.776,0.877-1.797,0.911-2.84,0.756c-0.688-0.103-1.347-0.321-1.83-0.876c-0.51-0.584-0.679-1.253-0.458-2.088
		C6.726,6.339,5.31,7.976,4.67,10.257c-1.792,0.085-2.531,0.64-2.467,1.833c0.062,1.151,0.912,1.727,2.421,1.607
		c0.208,0.508,0.382,1.039,0.633,1.533c1.739,3.386,5.691,4.951,9.295,3.656c0.511-0.185,0.827-0.164,1.12,0.278
		c0.059,0.09,0.146,0.16,0.247,0.265c-1.321,0.689-2.706,1.023-4.15,0.952c-3.203-0.155-5.677-1.608-7.277-4.401
		c-0.397-0.692-0.71-1.237-1.6-1.441c-1.017-0.234-1.486-1.146-1.74-2.124c0-0.288,0-0.579,0-0.867
		C1.469,10.404,2.106,9.525,3.323,9.3C3.838,9.205,4.012,8.95,4.2,8.533c2.159-4.744,8.279-6.407,12.628-3.456
		c1.406,0.955,2.449,2.203,3.104,3.771c0.108,0.253,0.243,0.354,0.521,0.389c1.249,0.15,2.28,1.235,2.385,2.472
		C22.954,13.064,22.132,14.305,20.869,14.667z M10.392,13.971c0.347-0.051,0.528,0.162,0.591,0.49c0.14,0.68,0.471,1.02,1.001,1.031
		c0.545,0.012,0.896-0.334,1.042-1.039c0.065-0.33,0.25-0.536,0.595-0.482c0.342,0.051,0.459,0.313,0.44,0.639
		c-0.05,1.027-0.987,1.916-2.037,1.941c-1.059,0.021-2.015-0.881-2.074-1.949C9.934,14.27,10.051,14.018,10.392,13.971z
		 M9.827,13.005c-0.42,0.021-0.688-0.231-0.694-0.662c-0.008-0.424,0.258-0.706,0.661-0.706c0.385,0.002,0.637,0.264,0.646,0.67
		C10.45,12.721,10.214,12.988,9.827,13.005z M13.566,12.25c-0.004-0.416,0.273-0.707,0.673-0.701
		c0.368,0.006,0.646,0.291,0.651,0.678c0.006,0.391-0.254,0.675-0.634,0.692C13.84,12.936,13.57,12.68,13.566,12.25z"/>
</g>
</svg>
