<?xml version="1.0" encoding="utf-8"?>
<!-- Generator: Adobe Illustrator 16.0.0, SVG Export Plug-In . SVG Version: 6.00 Build 0)  -->
<!DOCTYPE svg PUBLIC "-//W3C//DTD SVG 1.1//EN" "http://www.w3.org/Graphics/SVG/1.1/DTD/svg11.dtd">
<svg version="1.1" id="Layer_1" xmlns="http://www.w3.org/2000/svg" xmlns:xlink="http://www.w3.org/1999/xlink" x="0px" y="0px"
	 width="24px" height="24px" viewBox="0 0 24 24" enable-background="new 0 0 24 24" xml:space="preserve">
<circle fill="#F47920" cx="12" cy="12" r="12"/>
<path fill-rule="evenodd" clip-rule="evenodd" fill="#FFFFFF" d="M13.87,5.251c0.879-0.526,1.795-0.304,2.675-0.226
	c0.179,0.017,0.416,0.471,0.453,0.748c0.073,0.539,0.048,1.096,0.017,1.643c-0.023,0.418,0.112,0.704,0.44,0.971
	c0.867,0.703,1.698,1.449,2.556,2.165c0.336,0.281,0.531,0.607,0.396,1.039c-0.131,0.424-0.507,0.525-0.898,0.57
	c-0.019,0.002-0.038,0.002-0.057,0.003c-1.2,0.1-1.2,0.1-1.2,1.335c0,1.646,0.004,3.294-0.002,4.939
	c-0.003,0.902-0.253,1.146-1.143,1.148c-1.04,0.001-2.081,0.002-3.122,0c-0.799-0.003-1.083-0.265-1.1-1.091
	c-0.021-1.117-0.034-2.234,0.005-3.351c0.019-0.56-0.18-0.735-0.717-0.69c-0.47,0.039-0.948,0.033-1.418,0.002
	c-0.484-0.033-0.675,0.124-0.661,0.638c0.032,1.172,0.013,2.346,0.009,3.519c-0.002,0.745-0.23,0.97-0.991,0.973
	c-1.079,0.004-2.157,0.003-3.236,0c-0.781-0.002-1.056-0.264-1.06-1.058c-0.01-1.854-0.003-3.709-0.004-5.564
	c0-0.788-0.002-0.782-0.769-0.794c-0.525-0.008-1.123,0.07-1.369-0.55c-0.251-0.635,0.255-0.953,0.659-1.299
	c2.473-2.115,4.943-4.234,7.414-6.351c0.632-0.542,0.942-0.537,1.584,0.012c0.459,0.394,0.919,0.787,1.382,1.178
	C13.754,5.194,13.809,5.216,13.87,5.251z M14.569,6.904c-0.924-0.791-1.744-1.455-2.517-2.169c-0.384-0.355-0.637-0.356-1.036-0.007
	c-2.067,1.804-4.162,3.575-6.245,5.36c-0.451,0.387-0.892,0.785-1.337,1.178c0.016,0.053,0.032,0.105,0.049,0.159
	c0.682,0,1.363,0,2.076,0c0,0.325,0,0.551,0,0.777c0,1.95,0,3.898,0,5.849c0,0.765,0.001,0.765,0.792,0.766
	c0.776,0.001,1.553-0.027,2.327,0.011c0.513,0.024,0.703-0.13,0.687-0.664c-0.035-1.136-0.021-2.271-0.005-3.407
	c0.011-0.78,0.303-1.054,1.074-1.058c0.662-0.004,1.325-0.002,1.987-0.001c1.02,0.001,1.275,0.244,1.284,1.262
	c0.009,1.041,0.029,2.083-0.009,3.122c-0.021,0.553,0.117,0.787,0.719,0.749c0.792-0.052,1.591-0.041,2.383-0.003
	c0.535,0.024,0.727-0.133,0.717-0.695c-0.031-2.006-0.013-4.013-0.013-6.018c0-0.218,0-0.435,0-0.735c0.762,0,1.421,0,2.082,0
	c-0.673-0.747-1.332-1.437-2.105-1.958c-1.006-0.678-1.354-1.522-1.245-2.715c0.096-1.06,0.216-0.996-1.028-1.019
	c-0.458-0.009-0.621,0.159-0.573,0.597C14.647,6.425,14.605,6.572,14.569,6.904z"/>
</svg>
