<?xml version="1.0" encoding="utf-8"?>
<!-- Generator: Adobe Illustrator 16.0.0, SVG Export Plug-In . SVG Version: 6.00 Build 0)  -->
<!DOCTYPE svg PUBLIC "-//W3C//DTD SVG 1.1//EN" "http://www.w3.org/Graphics/SVG/1.1/DTD/svg11.dtd">
<svg version="1.1" id="Layer_1" xmlns="http://www.w3.org/2000/svg" xmlns:xlink="http://www.w3.org/1999/xlink" x="0px" y="0px"
	 width="24px" height="24px" viewBox="0 0 24 24" enable-background="new 0 0 24 24" xml:space="preserve">
<circle fill="#1F9F5F" cx="12" cy="12" r="12"/>
<g>
	<path fill-rule="evenodd" clip-rule="evenodd" d="M9.813,6.708c0,0.015-0.001,0.03-0.002,0.045c-0.553,0-1.106,0.019-1.659-0.003
		c-1.86-0.072-3.27,0.751-4.381,2.178c-1.161,1.489-1.484,3.203-1.422,5.052c0.057,1.706,0.178,1.859,1.87,1.792
		c0.329-0.014,0.495-0.084,0.583-0.455c0.271-1.13,1.004-1.713,2.044-1.721c1.047-0.01,1.811,0.577,2.075,1.682
		c0.094,0.392,0.263,0.496,0.628,0.494c1.88-0.012,3.76-0.012,5.642,0c0.395,0.004,0.563-0.106,0.658-0.528
		c0.244-1.07,1.063-1.67,2.105-1.647c1.026,0.021,1.772,0.618,2,1.684c0.085,0.399,0.261,0.498,0.627,0.492
		c0.744-0.012,1.042-0.287,1.056-1.036c0.006-0.31-0.03-0.623,0.006-0.928c0.168-1.343-0.994-3.036-2.867-3.259
		c-0.774-0.091-1.325-0.398-1.86-0.87c-0.298-0.264-0.589-0.536-0.896-0.788c-1.024-0.84-2.006-1.793-3.367-2.021
		C11.722,6.714,10.76,6.755,9.813,6.708z"/>
	<path fill-rule="evenodd" clip-rule="evenodd" d="M6.832,13.821c-0.944,0.006-1.749,0.822-1.721,1.744
		c0.028,0.948,0.84,1.748,1.751,1.727c0.921-0.021,1.751-0.861,1.734-1.759C8.581,14.609,7.76,13.813,6.832,13.821z"/>
	<path fill-rule="evenodd" clip-rule="evenodd" d="M19.655,15.577c0.01-0.964-0.734-1.743-1.68-1.757
		c-0.962-0.013-1.72,0.731-1.729,1.7c-0.009,0.978,0.722,1.749,1.673,1.77C18.853,17.307,19.646,16.524,19.655,15.577z"/>
	<path fill-rule="evenodd" clip-rule="evenodd" fill="#FFFFFF" d="M9.813,6.708c0.948,0.047,1.909,0.006,2.84,0.162
		c1.361,0.228,2.343,1.182,3.367,2.021c0.307,0.252,0.598,0.524,0.896,0.788c0.535,0.472,1.086,0.779,1.86,0.87
		c1.873,0.223,3.035,1.916,2.867,3.259c-0.036,0.305,0,0.618-0.006,0.928c-0.014,0.749-0.312,1.024-1.056,1.036
		c-0.366,0.006-0.542-0.093-0.627-0.492c-0.228-1.065-0.974-1.662-2-1.684c-1.043-0.022-1.861,0.577-2.105,1.647
		c-0.096,0.422-0.264,0.532-0.658,0.528c-1.882-0.012-3.762-0.012-5.642,0c-0.365,0.002-0.534-0.103-0.628-0.494
		c-0.264-1.104-1.027-1.691-2.075-1.682c-1.041,0.008-1.773,0.591-2.044,1.721c-0.088,0.371-0.254,0.441-0.583,0.455
		c-1.691,0.067-1.813-0.086-1.87-1.792c-0.062-1.849,0.261-3.563,1.422-5.052c1.112-1.427,2.521-2.25,4.381-2.178
		c0.552,0.022,1.106,0.003,1.659,0.003C9.812,6.738,9.812,6.723,9.813,6.708z M10.643,10.438c1.564,0,3.047,0,4.663,0
		c-1.417-1.203-2.66-2.462-4.663-1.907C10.643,9.166,10.643,9.775,10.643,10.438z M4.749,10.48c1.293,0,2.508,0.009,3.722-0.011
		c0.16-0.003,0.447-0.14,0.455-0.232C8.966,9.71,8.955,9.178,8.922,8.65c-0.005-0.079-0.216-0.191-0.343-0.21
		C6.952,8.204,5.617,8.897,4.749,10.48z"/>
	<path fill-rule="evenodd" clip-rule="evenodd" fill="#FFFFFF" d="M6.832,13.821c0.929-0.009,1.749,0.788,1.765,1.712
		c0.017,0.897-0.813,1.738-1.734,1.759c-0.912,0.021-1.723-0.778-1.751-1.727C5.083,14.644,5.887,13.827,6.832,13.821z M7.65,15.523
		c-0.009-0.538-0.329-0.819-0.822-0.82c-0.515,0-0.819,0.362-0.82,0.85c0,0.501,0.309,0.812,0.845,0.803
		C7.391,16.35,7.649,16.056,7.65,15.523z"/>
	<path fill-rule="evenodd" clip-rule="evenodd" fill="#FFFFFF" d="M19.655,15.577c-0.01,0.947-0.803,1.729-1.736,1.713
		c-0.951-0.021-1.682-0.792-1.673-1.77c0.01-0.969,0.768-1.713,1.729-1.7C18.921,13.834,19.665,14.613,19.655,15.577z
		 M18.784,15.579c-0.038-0.512-0.294-0.857-0.806-0.876c-0.508-0.02-0.829,0.287-0.857,0.805c-0.028,0.527,0.259,0.827,0.789,0.848
		C18.441,16.379,18.72,16.094,18.784,15.579z"/>
	<path fill-rule="evenodd" clip-rule="evenodd" fill="#1F9F5F" d="M10.643,10.438c0-0.664,0-1.273,0-1.907
		c2.002-0.555,3.246,0.704,4.663,1.907C13.69,10.438,12.208,10.438,10.643,10.438z"/>
	<path fill-rule="evenodd" clip-rule="evenodd" fill="#1F9F5F" d="M4.749,10.48c0.868-1.583,2.204-2.276,3.831-2.041
		c0.126,0.019,0.337,0.131,0.343,0.21c0.033,0.528,0.044,1.06,0.003,1.587c-0.007,0.092-0.294,0.229-0.455,0.232
		C7.256,10.489,6.042,10.48,4.749,10.48z"/>
	<path fill-rule="evenodd" clip-rule="evenodd" fill="#1F9F5F" d="M7.651,15.525c-0.001,0.53-0.26,0.824-0.797,0.83
		c-0.537,0.009-0.845-0.302-0.845-0.803c0.001-0.487,0.305-0.85,0.82-0.85C7.321,14.704,7.641,14.985,7.651,15.525z"/>
	<path fill-rule="evenodd" clip-rule="evenodd" fill="#1F9F5F" d="M18.784,15.579c-0.064,0.515-0.343,0.8-0.874,0.776
		c-0.53-0.021-0.817-0.32-0.789-0.848c0.028-0.518,0.35-0.824,0.857-0.805C18.49,14.722,18.746,15.067,18.784,15.579z"/>
</g>
</svg>
