<?xml version="1.0" encoding="utf-8"?>
<!-- Generator: Adobe Illustrator 16.0.0, SVG Export Plug-In . SVG Version: 6.00 Build 0)  -->
<!DOCTYPE svg PUBLIC "-//W3C//DTD SVG 1.1//EN" "http://www.w3.org/Graphics/SVG/1.1/DTD/svg11.dtd">
<svg version="1.1" id="Layer_1" xmlns="http://www.w3.org/2000/svg" xmlns:xlink="http://www.w3.org/1999/xlink" x="0px" y="0px"
	 width="24px" height="24px" viewBox="0 0 24 24" enable-background="new 0 0 24 24" xml:space="preserve">
<path fill="#E14745" d="M12,0C5.373,0,0,5.373,0,12c0,6.627,5.373,12,12,12c6.627,0,12-5.373,12-12C24,5.373,18.627,0,12,0z
	 M14.32,2.608c0.219-0.053,0.225-0.167,0.133-0.345c-0.064-0.119-0.071-0.255,0.15-0.272c0.258,0.205,0.358,0.042,0.494-0.194
	c0.1-0.174,0.229-0.03,0.269,0.094c0.065,0.203,0.163,0.248,0.347,0.138c0.071-0.043,0.162-0.071,0.232,0.011
	c0.064,0.076,0.037,0.169-0.004,0.24c-0.1,0.179-0.041,0.271,0.141,0.328c0.083,0.024,0.171,0.072,0.172,0.166
	c0.003,0.112-0.1,0.156-0.189,0.185c-0.176,0.054-0.209,0.147-0.125,0.31c0.045,0.081,0.08,0.185-0.01,0.264
	c-0.074,0.068-0.164,0.031-0.236-0.012c-0.18-0.105-0.269-0.042-0.321,0.139c-0.022,0.08-0.065,0.165-0.169,0.168
	c-0.105,0.002-0.151-0.087-0.171-0.166c-0.06-0.222-0.181-0.229-0.353-0.132c-0.065,0.036-0.144,0.06-0.212,0.001
	c-0.073-0.067-0.062-0.161-0.021-0.235c0.093-0.167,0.104-0.294-0.124-0.346c-0.084-0.02-0.164-0.073-0.165-0.17
	C14.154,2.682,14.236,2.629,14.32,2.608z M13.745,15.219c-0.241,2.323-0.937,4.5-2.058,6.559c-0.24,0.441-0.469,0.516-0.89,0.506
	c-0.958-0.023-1.916-0.02-2.874-0.002c-0.405,0.008-0.663-0.033-0.864-0.498c-0.303-0.697-0.696-1.363-0.97-2.078
	c-0.971-2.545-1.411-5.164-1.061-7.886c0.129-1.012,0.425-1.973,1.078-2.792c0.263-0.33,0.569-0.619,0.954-0.782
	c0.827-0.354,1.169-1.003,1.228-1.853C7.767,5.974,7.244,5.558,6.79,5.068C6.634,4.902,6.396,4.76,6.474,4.465
	c0.103-0.189,0.289-0.28,0.464-0.375c1.668-0.914,3.327-0.878,4.971,0.07c0.135,0.079,0.279,0.156,0.357,0.306
	c0.076,0.282-0.152,0.415-0.298,0.576c-0.456,0.501-1.001,0.907-1.513,1.349c0.058,0.85,0.411,1.474,1.226,1.856
	c0.996,0.467,1.473,1.38,1.777,2.384C13.912,12.134,13.907,13.673,13.745,15.219z M15.796,6.975
	c-0.168,0.058-0.14,0.137-0.084,0.263c0.084,0.188,0.259,0.416,0.081,0.587c-0.169,0.165-0.402,0.013-0.588-0.085
	c-0.16-0.086-0.217-0.035-0.271,0.12c-0.066,0.195-0.113,0.477-0.356,0.473c-0.238-0.003-0.285-0.283-0.354-0.479
	c-0.053-0.165-0.123-0.19-0.274-0.11c-0.185,0.097-0.417,0.251-0.587,0.078c-0.166-0.171-0.006-0.404,0.09-0.587
	c0.085-0.165,0.031-0.216-0.121-0.269c-0.193-0.069-0.477-0.113-0.471-0.358c0.007-0.239,0.283-0.286,0.48-0.352
	c0.164-0.055,0.186-0.122,0.108-0.276c-0.093-0.184-0.255-0.414-0.078-0.586c0.174-0.17,0.401-0.003,0.585,0.091
	c0.165,0.084,0.217,0.033,0.27-0.12c0.07-0.194,0.114-0.477,0.357-0.475c0.24,0.003,0.289,0.282,0.354,0.48
	c0.056,0.159,0.119,0.198,0.273,0.111c0.117-0.066,0.255-0.106,0.389-0.137c0.172-0.041,0.264,0.037,0.258,0.161
	c-0.021,0.219-0.078,0.369-0.157,0.507c-0.074,0.129-0.03,0.185,0.096,0.233c0.205,0.075,0.507,0.114,0.507,0.365
	C16.301,6.864,16.001,6.905,15.796,6.975z M18.881,4.903c-0.253,0.076-0.379,0.171-0.201,0.438c0.053,0.084,0.09,0.211,0.002,0.299
	c-0.097,0.097-0.224,0.055-0.324-0.006c-0.215-0.136-0.34-0.1-0.397,0.162c-0.024,0.112-0.083,0.238-0.224,0.239
	c-0.139,0-0.195-0.128-0.223-0.237c-0.059-0.257-0.179-0.301-0.396-0.165c-0.1,0.062-0.227,0.102-0.324,0.005
	c-0.104-0.101-0.044-0.23,0.014-0.324c0.123-0.202,0.108-0.324-0.145-0.384c-0.123-0.029-0.262-0.084-0.255-0.242
	c0.005-0.135,0.131-0.191,0.243-0.218c0.242-0.055,0.293-0.161,0.158-0.377C16.749,4,16.689,3.872,16.785,3.766
	c0.109-0.121,0.244-0.059,0.349,0.008c0.216,0.133,0.318,0.08,0.374-0.158c0.025-0.11,0.077-0.243,0.215-0.251
	c0.157-0.009,0.217,0.133,0.243,0.254c0.058,0.247,0.167,0.275,0.377,0.154c0.147-0.082,0.329-0.151,0.388,0.154
	c-0.295,0.361-0.035,0.486,0.272,0.661C19.203,4.703,19.018,4.86,18.881,4.903z"/>
</svg>
