<?xml version="1.0" encoding="utf-8"?>
<!-- Generator: Adobe Illustrator 16.0.0, SVG Export Plug-In . SVG Version: 6.00 Build 0)  -->
<!DOCTYPE svg PUBLIC "-//W3C//DTD SVG 1.1//EN" "http://www.w3.org/Graphics/SVG/1.1/DTD/svg11.dtd">
<svg version="1.1" id="Layer_1" xmlns="http://www.w3.org/2000/svg" xmlns:xlink="http://www.w3.org/1999/xlink" x="0px" y="0px"
	 width="24px" height="24px" viewBox="0 0 24 24" enable-background="new 0 0 24 24" xml:space="preserve">
<g>
	<g>
		<path fill-rule="evenodd" clip-rule="evenodd" fill="#CE0B11" d="M11.019,13.226c0,3.258,0,6.505,0,9.769
			c-2.759,0-5.514,0-8.298,0c0-0.09,0-0.173,0-0.257c0-3.091,0.001-6.183-0.003-9.272c0-0.176,0.024-0.253,0.229-0.252
			c2.639,0.006,5.277,0.004,7.915,0.004C10.911,13.217,10.96,13.221,11.019,13.226z"/>
		<path fill-rule="evenodd" clip-rule="evenodd" fill="#CE0B11" d="M21.316,23c-2.763,0-5.513,0-8.278,0c0-3.257,0-6.509,0-9.772
			c2.761,0,5.511,0,8.278,0C21.316,16.481,21.316,19.727,21.316,23z"/>
		<path fill-rule="evenodd" clip-rule="evenodd" fill="#CE0B11" d="M11.944,6.049c0.131-0.328,0.232-0.664,0.393-0.969
			c0.79-1.509,2.012-2.534,3.599-3.129c0.199-0.075,0.419-0.108,0.631-0.127c0.867-0.076,1.438,0.463,1.445,1.37
			c0.005,0.652-0.175,1.27-0.482,1.834c-0.298,0.545-0.663,1.055-0.997,1.58c-0.031,0.047-0.067,0.09-0.134,0.182
			c1.104-0.418,2.127-0.886,3.122-1.461c-0.343,1.129-0.239,1.448,0.766,2.039c-0.578,0.151-1.131,0.311-1.691,0.439
			c-1.955,0.449-3.915,0.88-5.869,1.333c-0.491,0.113-0.945,0.073-1.425-0.087c-1.492-0.496-3.02-0.864-4.573-1.096
			C5.82,7.82,4.901,7.768,3.986,7.68C3.933,7.675,3.877,7.679,3.791,7.66C4.598,7.084,4.773,6.4,4.164,5.571
			c0.017-0.006,0.034-0.013,0.05-0.019c1.066,0.321,2.133,0.643,3.249,0.979C7.355,6.376,7.273,6.26,7.19,6.143
			C6.536,5.206,6,4.211,5.805,3.071C5.748,2.737,5.743,2.381,5.79,2.045C5.895,1.305,6.512,0.938,7.296,1.1
			c0.691,0.145,1.285,0.491,1.828,0.921c1.025,0.811,1.912,1.742,2.438,2.962C11.71,5.329,11.818,5.69,11.944,6.049z M11.068,7.664
			c0.017-0.057,0.028-0.083,0.032-0.111c0.008-0.049,0.013-0.099,0.015-0.149c0.05-1.252-0.333-2.327-1.292-3.169
			C9.425,3.887,9.014,3.566,8.475,3.473C8.126,3.414,7.835,3.59,7.758,3.932C7.724,4.083,7.717,4.246,7.732,4.4
			C7.781,4.88,7.987,5.305,8.211,5.725C8.823,6.866,9.824,7.427,11.068,7.664z M12.72,7.614c0.043,0.01,0.063,0.02,0.083,0.019
			c1.277-0.085,2.282-0.615,2.9-1.779c0.217-0.41,0.392-0.83,0.343-1.31c-0.031-0.32-0.24-0.569-0.557-0.576
			c-0.236-0.004-0.487,0.038-0.709,0.121c-0.535,0.2-0.966,0.565-1.333,0.994C12.817,5.813,12.685,6.689,12.72,7.614z"/>
		<path fill-rule="evenodd" clip-rule="evenodd" fill="#CE0B11" d="M1.816,9.318c3.073,0,6.128,0,9.199,0c0,1.15,0,2.294,0,3.45
			c-3.068,0-6.126,0-9.199,0C1.816,11.62,1.816,10.481,1.816,9.318z"/>
		<path fill-rule="evenodd" clip-rule="evenodd" fill="#CE0B11" d="M22.242,9.33c0,1.154,0,2.288,0,3.437c-3.069,0-6.127,0-9.202,0
			c0-1.14,0-2.278,0-3.437C16.1,9.33,19.163,9.33,22.242,9.33z"/>
	</g>
</g>
</svg>
