<?xml version="1.0" encoding="utf-8"?>
<!-- Generator: Adobe Illustrator 16.0.0, SVG Export Plug-In . SVG Version: 6.00 Build 0)  -->
<!DOCTYPE svg PUBLIC "-//W3C//DTD SVG 1.1//EN" "http://www.w3.org/Graphics/SVG/1.1/DTD/svg11.dtd">
<svg version="1.1" id="Layer_1" xmlns="http://www.w3.org/2000/svg" xmlns:xlink="http://www.w3.org/1999/xlink" x="0px" y="0px"
	 width="24px" height="24px" viewBox="0 0 24 24" enable-background="new 0 0 24 24" xml:space="preserve">
<circle fill="#FF0000" cx="12" cy="12" r="12"/>
<g>
	<path fill-rule="evenodd" clip-rule="evenodd" fill="#FFFFFF" d="M11.827,9.078c0.24,0.009,0.482,0.017,0.724,0.03
		c0.872,0.045,1.717-0.091,2.529-0.405c0.439-0.17,0.837-0.412,1.129-0.798c0.087-0.115,0.114-0.211,0.046-0.355
		c-0.166-0.353-0.157-0.357-0.548-0.356c-0.368,0-0.736,0.009-1.104-0.003c-0.103-0.003-0.238-0.04-0.289-0.112
		c-0.074-0.102-0.013-0.217,0.093-0.306c0.048-0.041,0.071-0.131,0.077-0.202c0.066-0.878,0.465-1.583,1.144-2.125
		c0.414-0.331,0.899-0.524,1.427-0.606c0.048-0.008,0.095-0.012,0.19-0.024c-0.064-0.074-0.113-0.116-0.142-0.168
		c-0.032-0.062-0.077-0.139-0.063-0.195c0.017-0.055,0.095-0.123,0.152-0.131c0.153-0.019,0.313-0.022,0.467-0.005
		c0.067,0.007,0.162,0.065,0.18,0.122c0.021,0.06-0.027,0.15-0.063,0.217c-0.024,0.047-0.08,0.078-0.15,0.143
		c0.181,0.039,0.316,0.067,0.454,0.099c0.999,0.232,1.701,0.825,2.088,1.771c0.122,0.3,0.158,0.634,0.239,0.951
		c0.016,0.062,0.04,0.136,0.086,0.17c0.105,0.079,0.138,0.184,0.076,0.275c-0.047,0.067-0.158,0.123-0.24,0.125
		c-0.455,0.012-0.913,0.027-1.368-0.001c-0.371-0.023-0.656,0.148-0.948,0.33c-0.365,0.228-0.734,0.448-0.935,0.857
		c-0.044,0.089-0.066,0.152,0.015,0.23c0.112,0.108,0.114,0.23,0.043,0.374c-0.407,0.821-1.017,1.446-1.835,1.852
		c-0.342,0.17-0.713,0.282-1.077,0.402c-0.13,0.042-0.155,0.082-0.111,0.209c0.204,0.584,0.251,1.191,0.245,1.805
		c-0.002,0.072,0.009,0.145,0.018,0.251c0.27,0,0.524-0.002,0.78,0.001c0.528,0.007,1.054,0.084,1.514,0.345
		c0.275,0.158,0.506,0.416,0.722,0.661c0.741,0.841,1.466,1.696,2.196,2.544c0.17,0.197,0.307,0.214,0.514,0.057
		c0.184-0.139,0.354-0.297,0.545-0.423c0.168-0.111,0.364-0.121,0.556-0.046c0.161,0.063,0.18,0.124,0.071,0.261
		c-0.341,0.43-0.687,0.855-1.029,1.284c-0.244,0.306-0.482,0.618-0.735,0.917c-0.063,0.073-0.179,0.16-0.254,0.147
		c-0.088-0.015-0.176-0.122-0.231-0.208c-0.063-0.096-0.087-0.213-0.133-0.337c-0.118,0.075-0.215,0.139-0.341,0.218
		c-0.102-0.146-0.195-0.286-0.293-0.426c-0.537-0.781-1.113-1.531-1.788-2.202c-0.134-0.134-0.22-0.12-0.356-0.01
		c-0.818,0.644-1.703,1.169-2.721,1.438c-0.161,0.043-0.328,0.071-0.494,0.101c-0.053,0.01-0.108,0.001-0.186,0.001
		c-0.034-0.337-0.07-0.669-0.109-1.051c-0.089,0.105-0.158,0.177-0.219,0.256c-0.53,0.698-1.131,1.324-1.822,1.868
		c-0.41,0.322-0.859,0.34-1.328,0.238c-0.893-0.192-1.761-0.462-2.586-0.854c-0.437-0.208-0.86-0.448-1.28-0.689
		c-0.248-0.141-0.42-0.137-0.615,0.071c-0.222,0.237-0.431,0.5-0.758,0.585c-0.146,0.039-0.313,0.007-0.468-0.018
		c-0.107-0.019-0.128-0.091-0.054-0.194c0.421-0.587,0.834-1.179,1.253-1.768c0.147-0.208,0.29-0.422,0.452-0.618
		c0.063-0.077,0.189-0.172,0.261-0.155c0.089,0.022,0.162,0.145,0.22,0.239c0.056,0.088,0.079,0.196,0.127,0.318
		c0.138-0.117,0.24-0.204,0.342-0.291c0.325,0.216,0.631,0.459,0.97,0.635c0.485,0.25,0.986,0.473,1.498,0.662
		c0.576,0.212,0.895-0.037,1.127-0.483c0.282-0.545,0.511-1.12,0.742-1.69c0.087-0.21,0.113-0.433-0.068-0.646
		c-0.09-0.109-0.107-0.283-0.157-0.428c0.016-0.017,0.03-0.034,0.047-0.052c-0.103,0-0.204-0.002-0.306,0.001
		c-0.599,0.02-1.197,0.042-1.796,0.061c-0.1,0.002-0.202,0.004-0.298-0.016c-0.09-0.018-0.177-0.066-0.266-0.101
		c0.046-0.084,0.081-0.18,0.14-0.254c0.198-0.245,0.441-0.377,0.779-0.332c0.25,0.033,0.508,0.006,0.802,0.006
		c-0.043-0.095-0.073-0.164-0.104-0.231c-0.092-0.204-0.053-0.277,0.163-0.255c0.283,0.029,0.566,0.076,0.845,0.136
		c0.145,0.031,0.201,0.004,0.194-0.144c-0.02-0.547-0.015-1.089-0.308-1.594c-0.218-0.379-0.2-0.829-0.25-1.254
		c-0.048-0.441-0.156-0.848-0.53-1.164c-0.285-0.242-0.495-0.57-0.748-0.851C8.423,7.566,8.229,7.382,8.04,7.192
		C7.958,7.109,7.904,7.104,7.819,7.211c-0.231,0.29-0.537,0.48-0.915,0.465C6.141,7.645,5.636,6.916,5.909,6.22
		c0.025-0.064,0.036-0.152,0.013-0.215C5.736,5.491,5.81,5.013,6.156,4.603C6.33,4.396,6.42,4.164,6.475,3.92
		c0.193-0.86,0.754-1.341,1.563-1.589c0.184-0.056,0.346-0.171,0.527-0.23C9.38,1.836,10.139,2.205,10.5,2.861
		c0.106,0.193,0.159,0.416,0.242,0.623c0.075,0.184,0.186,0.359,0.228,0.55c0.044,0.213,0.046,0.441,0.023,0.659
		c-0.012,0.111,0.003,0.181,0.068,0.268c0.169,0.229,0.343,0.458,0.483,0.705c0.086,0.152,0.111,0.337,0.168,0.506
		c0.041,0.123,0.069,0.257,0.138,0.364c0.109,0.17,0.157,0.346,0.161,0.544c0.003,0.088,0.038,0.188,0.091,0.26
		c0.3,0.41,0.207,1.155-0.212,1.588c-0.028,0.03-0.053,0.063-0.079,0.094C11.816,9.041,11.821,9.059,11.827,9.078z"/>
</g>
</svg>
