<?xml version="1.0" encoding="utf-8"?>
<!-- Generator: Adobe Illustrator 16.0.0, SVG Export Plug-In . SVG Version: 6.00 Build 0)  -->
<!DOCTYPE svg PUBLIC "-//W3C//DTD SVG 1.1//EN" "http://www.w3.org/Graphics/SVG/1.1/DTD/svg11.dtd">
<svg version="1.1" id="Layer_1" xmlns="http://www.w3.org/2000/svg" xmlns:xlink="http://www.w3.org/1999/xlink" x="0px" y="0px"
	 width="24px" height="24px" viewBox="0 0 24 24" enable-background="new 0 0 24 24" xml:space="preserve">
<circle fill="#FFD500" cx="12" cy="12" r="12"/>
<g>
	<path fill-rule="evenodd" clip-rule="evenodd" fill="#FFFFFF" d="M5.628,9.253c0.626,0,1.229,0,1.813,0
		c-0.062,0.711-0.126,1.408-0.182,2.106c-0.019,0.238-0.02,0.478-0.019,0.717c0,0.262,0.163,0.434,0.389,0.427
		c0.22-0.005,0.352-0.171,0.372-0.426c0.063-0.861,0.134-1.722,0.207-2.583c0.007-0.077,0.029-0.151,0.047-0.239
		c2.47,0,4.935,0,7.442,0c0.062,0.558,0.136,1.112,0.186,1.67c0.033,0.378,0.033,0.759,0.041,1.139
		c0.01,0.271,0.15,0.439,0.379,0.439c0.224,0.002,0.394-0.171,0.381-0.437c-0.052-0.932-0.118-1.864-0.177-2.811
		c0.584,0,1.219,0,1.876,0c0,0.505-0.007,1.003,0.004,1.5c0,0.137,0.021,0.281,0.062,0.413c0.416,1.326,0.855,2.643,1.25,3.977
		c0.257,0.863,0.433,1.75,0.402,2.656c-0.01,0.333-0.058,0.677-0.149,0.997c-0.221,0.762-0.797,1.201-1.588,1.261
		c-0.195,0.015-0.395,0.021-0.593,0.021c-3.845,0.001-7.693,0.002-11.54-0.003c-0.301,0-0.609-0.012-0.901-0.074
		c-0.788-0.168-1.275-0.783-1.388-1.683c-0.122-0.969,0.023-1.914,0.284-2.836c0.383-1.349,0.819-2.685,1.247-4.021
		c0.108-0.333,0.171-0.661,0.16-1.01C5.616,10.063,5.628,9.669,5.628,9.253z"/>
	<path fill-rule="evenodd" clip-rule="evenodd" fill="#FFFFFF" d="M7.366,11.429c0.068-1.391,0.263-2.755,0.754-4.066
		c0.346-0.925,0.818-1.773,1.542-2.46c1.385-1.313,3.208-1.315,4.594-0.002c0.824,0.779,1.319,1.757,1.67,2.815
		c0.47,1.41,0.615,2.867,0.629,4.342c0.003,0.203-0.099,0.321-0.254,0.319c-0.16,0-0.248-0.111-0.251-0.322
		c-0.016-1.448-0.159-2.876-0.629-4.256c-0.328-0.962-0.778-1.854-1.54-2.554c-0.621-0.572-1.336-0.9-2.202-0.803
		c-0.656,0.072-1.198,0.386-1.669,0.83C9.238,6.003,8.785,6.923,8.461,7.917C8.04,9.206,7.9,10.536,7.873,11.884
		c-0.002,0.078,0.001,0.155-0.002,0.232c-0.004,0.159-0.089,0.255-0.246,0.258c-0.158,0.005-0.249-0.096-0.255-0.249
		C7.359,11.893,7.366,11.662,7.366,11.429z"/>
</g>
</svg>
