<?xml version="1.0" encoding="utf-8"?>
<!-- Generator: Adobe Illustrator 16.0.0, SVG Export Plug-In . SVG Version: 6.00 Build 0)  -->
<!DOCTYPE svg PUBLIC "-//W3C//DTD SVG 1.1//EN" "http://www.w3.org/Graphics/SVG/1.1/DTD/svg11.dtd">
<svg version="1.1" id="Layer_1" xmlns="http://www.w3.org/2000/svg" xmlns:xlink="http://www.w3.org/1999/xlink" x="0px" y="0px"
	 width="297.039px" height="75px" viewBox="0 0 297.039 75" enable-background="new 0 0 297.039 75" xml:space="preserve">
<g>
	<circle fill="#FFFFFF" cx="36.956" cy="46.844" r="5.55"/>
	<g>
		<path fill="#FFFFFF" d="M59.96,30.154v-6.455H36.685c-12.672,0-22.944,10.272-22.944,22.943c0,12.672,10.272,22.944,22.944,22.944
			c12.671,0,22.943-10.272,22.943-22.944V37.93h-6.046c-2.187,0.032-3.951,1.806-3.962,3.997v4.716
			c0,7.145-5.792,12.936-12.935,12.936S23.75,53.787,23.75,46.643c0-7.144,5.792-12.935,12.935-12.935h19.8
			C58.411,33.664,59.96,32.091,59.96,30.154z"/>
		<path fill="#FFFFFF" d="M59.824,14.573V3.189h-1.934c-4.458,0-8.072,3.615-8.072,8.073v7.276h6.042
			C58.05,18.538,59.824,16.763,59.824,14.573z"/>
	</g>
</g>
<g>
	<path fill="#FFFFFF" d="M114.897,25.771c0.711,0,1.339,0.083,1.884,0.249c0.545,0.166,0.817,0.415,0.817,0.746
		c0,0.379-0.077,0.664-0.23,0.853c-0.154,0.19-0.361,0.344-0.622,0.462c-0.261,0.119-0.581,0.249-0.96,0.391
		s-0.781,0.368-1.208,0.675c-0.309,0.213-0.568,0.45-0.782,0.711c-0.213,0.261-0.444,0.693-0.692,1.297
		c-0.249,0.604-0.533,1.451-0.854,2.541c-0.319,1.09-0.729,2.547-1.227,4.372c-0.497,1.824-1.107,4.087-1.83,6.788
		s-1.605,5.982-2.647,9.845c-0.261,0.64-0.279,1.315-0.054,2.025c0.226,0.711,0.657,1.315,1.298,1.813
		c0.142,0.118,0.13,0.266-0.036,0.443s-0.344,0.255-0.533,0.231c-0.995,0-1.824-0.143-2.487-0.427
		c-0.664-0.284-1.173-0.646-1.528-1.084c-0.355-0.438-0.569-0.924-0.64-1.457c-0.071-0.533-0.013-1.049,0.178-1.546
		c1.089-3.72,1.983-6.765,2.683-9.134s1.256-4.271,1.671-5.704c0.414-1.434,0.729-2.512,0.941-3.235
		c0.214-0.723,0.379-1.285,0.498-1.688c0.118-0.402,0.219-0.758,0.302-1.066c0.083-0.308,0.219-0.77,0.409-1.386
		c-0.569,0.545-1.321,1.315-2.257,2.31c-0.937,0.995-1.926,2.103-2.968,3.323c-1.043,1.221-2.067,2.494-3.074,3.821
		c-1.008,1.327-1.854,2.582-2.541,3.767c0.094,0.593,0.183,1.279,0.266,2.062s0.137,1.582,0.16,2.399s-0.006,1.599-0.089,2.346
		c-0.083,0.746-0.243,1.368-0.479,1.865c-0.332,0.664-0.746,1.197-1.244,1.6c-0.497,0.403-1.019,0.664-1.563,0.782
		c-0.546,0.118-1.072,0.095-1.582-0.071c-0.51-0.165-0.918-0.468-1.226-0.906c-0.309-0.438-0.486-1.007-0.533-1.706
		c-0.048-0.698,0.118-1.546,0.497-2.541c0.189-0.545,0.551-1.309,1.084-2.293c0.533-0.982,1.202-2.149,2.009-3.5
		c-0.427-1.919-0.818-3.572-1.173-4.958c-0.355-1.387-0.652-2.595-0.889-3.625c-0.237-1.031-0.392-1.925-0.462-2.684
		c-0.071-0.758-0.048-1.493,0.07-2.204c-0.403,1.043-0.776,2.228-1.119,3.554c-0.344,1.327-0.682,2.719-1.013,4.176
		c-0.332,1.457-0.682,2.944-1.049,4.461s-0.794,2.985-1.279,4.406c-0.486,1.422-1.049,2.761-1.688,4.017s-1.392,2.352-2.257,3.287
		c-0.865,0.937-1.866,1.677-3.003,2.222c-1.138,0.545-2.44,0.817-3.91,0.817c-1.208,0-2.127-0.236-2.754-0.711
		c-0.628-0.474-1.049-1.024-1.262-1.652s-0.261-1.262-0.143-1.901s0.308-1.125,0.569-1.457c0.26-0.355,0.563-0.61,0.906-0.765
		c0.343-0.153,0.64-0.219,0.889-0.195c0.248,0.023,0.408,0.148,0.479,0.373c0.071,0.226-0.024,0.551-0.284,0.978
		c-0.45,0.734-0.664,1.368-0.64,1.901c0.022,0.533,0.213,0.948,0.568,1.244s0.829,0.474,1.422,0.533
		c0.592,0.06,1.22-0.036,1.884-0.284c0.663-0.249,1.32-0.652,1.972-1.209s1.215-1.285,1.688-2.186
		c0.332-0.64,0.622-1.273,0.871-1.901s0.456-1.202,0.622-1.724c0.189-0.593,0.343-1.161,0.462-1.706
		c1.09-3.909,2.025-7.292,2.808-10.147c0.782-2.855,1.575-5.218,2.381-7.09c0.806-1.872,1.706-3.264,2.701-4.176
		c0.995-0.912,2.251-1.368,3.768-1.368c0.498,0,0.854,0.065,1.066,0.195c0.213,0.131,0.338,0.273,0.373,0.427
		c0.036,0.154,0.023,0.308-0.035,0.462c-0.06,0.154-0.125,0.255-0.195,0.302c-0.071,0.048-0.196,0.113-0.374,0.195
		c-0.178,0.083-0.373,0.195-0.586,0.338c-0.213,0.142-0.427,0.32-0.64,0.533c-0.214,0.213-0.38,0.475-0.498,0.782
		c-0.308,0.758-0.479,1.564-0.515,2.417c-0.036,0.853,0.035,1.825,0.213,2.915c0.178,1.09,0.444,2.31,0.8,3.661
		c0.355,1.351,0.77,2.891,1.244,4.621c0.663-1.019,1.409-2.144,2.238-3.376s1.712-2.471,2.648-3.715
		c0.936-1.244,1.913-2.452,2.932-3.625s2.056-2.215,3.11-3.127c1.054-0.912,2.108-1.641,3.163-2.186
		C112.842,26.043,113.879,25.771,114.897,25.771z M95.492,53.848c0.095,0.214,0.225,0.314,0.392,0.303
		c0.165-0.012,0.313-0.172,0.443-0.479c0.131-0.309,0.219-0.782,0.267-1.422s0-1.48-0.142-2.523c-0.45,1.137-0.746,2.067-0.889,2.79
		S95.397,53.683,95.492,53.848z"/>
	<path fill="#FFFFFF" d="M121.401,55.696c-0.189,0.688-0.314,1.215-0.373,1.582c-0.06,0.367-0.071,0.646-0.035,0.835
		c0.035,0.189,0.101,0.319,0.195,0.391c0.094,0.071,0.201,0.143,0.319,0.213c-0.403,0.333-0.853,0.516-1.351,0.552
		c-0.497,0.035-0.947-0.065-1.351-0.303c-0.402-0.236-0.705-0.615-0.906-1.137s-0.207-1.173-0.018-1.955
		c-0.972,1.517-1.925,2.506-2.861,2.968c-0.936,0.462-1.735,0.568-2.398,0.319c-0.664-0.248-1.132-0.775-1.404-1.581
		s-0.243-1.706,0.089-2.701l3.021-10.698c0.189-0.687,0.313-1.22,0.373-1.599c0.059-0.379,0.071-0.663,0.035-0.854
		c-0.035-0.189-0.101-0.319-0.195-0.391s-0.201-0.143-0.32-0.213c0.403-0.355,0.859-0.545,1.369-0.569
		c0.509-0.023,0.965,0.096,1.368,0.355c0.402,0.261,0.698,0.67,0.889,1.227c0.189,0.557,0.178,1.238-0.036,2.043l-3.021,10.698
		c-0.284,1.019-0.392,1.706-0.32,2.062s0.255,0.456,0.551,0.302c0.296-0.153,0.663-0.509,1.103-1.066
		c0.438-0.557,0.894-1.244,1.368-2.062c0.474-0.817,0.93-1.711,1.368-2.683s0.787-1.943,1.049-2.915
		c0.474-1.657,0.841-2.949,1.102-3.873c0.26-0.925,0.432-1.623,0.516-2.098c0.082-0.474,0.076-0.793-0.019-0.959
		s-0.248-0.32-0.462-0.462c0.402-0.355,0.858-0.545,1.368-0.569c0.51-0.023,0.966,0.096,1.369,0.355
		c0.402,0.261,0.698,0.67,0.888,1.227s0.178,1.238-0.035,2.043L121.401,55.696z"/>
	<path fill="#FFFFFF" d="M135.973,41.978c0.355-0.592,0.759-1.001,1.209-1.227c0.449-0.225,0.882-0.308,1.297-0.248
		c0.414,0.06,0.776,0.243,1.084,0.551s0.498,0.711,0.568,1.208c-0.261,0.071-0.474,0.16-0.64,0.267s-0.325,0.309-0.479,0.604
		c-0.154,0.297-0.319,0.723-0.497,1.279s-0.403,1.315-0.676,2.274c-0.272,0.96-0.604,2.168-0.995,3.625s-0.883,3.229-1.475,5.313
		c-0.19,0.688-0.314,1.215-0.373,1.582c-0.06,0.367-0.071,0.646-0.036,0.835c0.036,0.189,0.095,0.32,0.178,0.391
		c0.083,0.071,0.184,0.143,0.302,0.214c-0.354,0.308-0.746,0.492-1.173,0.551c-0.426,0.059-0.829,0.012-1.208-0.143
		c-0.379-0.153-0.699-0.414-0.96-0.781s-0.402-0.812-0.426-1.333c-0.64,1.137-1.381,1.843-2.222,2.114
		c-0.841,0.272-1.611,0.236-2.311-0.106s-1.243-0.924-1.635-1.741c-0.391-0.817-0.444-1.735-0.16-2.755l2.701-9.596
		c0.45-1.54,1.12-2.653,2.009-3.341s1.984-1.031,3.287-1.031c0.663,0,1.202,0.16,1.617,0.48
		C135.374,41.284,135.712,41.622,135.973,41.978z M132.774,52.32c0.568-2.014,1.013-3.584,1.333-4.71
		c0.319-1.125,0.556-1.972,0.711-2.541c0.153-0.568,0.267-0.959,0.337-1.173c0.071-0.213,0.143-0.426,0.214-0.64
		c-0.096-0.308-0.262-0.586-0.498-0.835c-0.237-0.249-0.593-0.373-1.066-0.373s-0.883,0.243-1.226,0.729
		c-0.344,0.485-0.693,1.238-1.049,2.257s-0.741,2.305-1.155,3.855c-0.415,1.553-0.918,3.407-1.51,5.563
		c-0.262,0.995-0.285,1.683-0.071,2.062c0.213,0.379,0.545,0.468,0.995,0.267c0.449-0.201,0.953-0.675,1.511-1.422
		C131.855,54.612,132.348,53.6,132.774,52.32z"/>
	<path fill="#FFFFFF" d="M161.1,42.262c-0.355,0.119-0.656,0.303-0.906,0.551c-0.248,0.249-0.479,0.729-0.693,1.439l-4.193,14.963
		c-0.166,0.545-0.391,1.279-0.676,2.203c-0.283,0.925-0.656,1.907-1.119,2.95c-0.461,1.043-1.02,2.097-1.67,3.163
		c-0.652,1.066-1.416,2.026-2.293,2.879c-0.877,0.854-1.883,1.552-3.021,2.097s-2.417,0.818-3.839,0.818
		c-1.137,0-2.02-0.237-2.647-0.711c-0.628-0.475-1.019-1.079-1.173-1.813c-0.153-0.735-0.083-1.553,0.213-2.453
		c0.297-0.9,0.788-1.771,1.476-2.612s1.552-1.594,2.595-2.257s2.25-1.149,3.625-1.457c0.592-0.142,1.113-0.249,1.563-0.319
		c0.45-0.071,0.77-0.071,0.96,0c0.164,0.047,0.266,0.147,0.301,0.302c0.037,0.153,0.02,0.319-0.053,0.497
		c-0.07,0.178-0.195,0.332-0.373,0.463c-0.178,0.13-0.385,0.207-0.622,0.23c-0.166,0.023-0.361-0.018-0.586-0.124
		c-0.226-0.106-0.409-0.16-0.551-0.16c-1.375,0.498-2.488,1.208-3.341,2.133c-0.854,0.924-1.564,2.062-2.133,3.411
		c-0.213,0.521-0.379,1.014-0.497,1.476s-0.16,0.864-0.125,1.208c0.036,0.344,0.16,0.616,0.373,0.817
		c0.214,0.201,0.546,0.303,0.995,0.303c0.995,0,1.896-0.255,2.701-0.765s1.528-1.179,2.168-2.008
		c0.641-0.83,1.203-1.777,1.688-2.844c0.485-1.065,0.917-2.145,1.298-3.233c0.379-1.091,0.703-2.157,0.977-3.199
		c0.271-1.042,0.527-1.955,0.764-2.736c-0.615,0.947-1.326,1.51-2.133,1.688c-0.805,0.178-1.539,0.083-2.202-0.284
		c-0.664-0.367-1.173-0.947-1.528-1.741s-0.392-1.688-0.106-2.684l2.7-9.596c0.449-1.54,1.119-2.653,2.008-3.341
		s1.973-1.031,3.252-1.031c0.664,0,1.209,0.16,1.635,0.48c0.428,0.319,0.77,0.657,1.031,1.013c0.355-0.592,0.758-1.001,1.209-1.227
		c0.449-0.225,0.877-0.308,1.279-0.248s0.758,0.243,1.066,0.551C160.803,41.361,161.006,41.765,161.1,42.262z M153.742,52.32
		c0.57-2.014,1.014-3.578,1.334-4.692c0.32-1.112,0.557-1.96,0.711-2.54c0.152-0.581,0.266-0.978,0.338-1.191
		c0.07-0.213,0.141-0.426,0.213-0.64c-0.119-0.379-0.326-0.687-0.623-0.924c-0.295-0.236-0.633-0.325-1.012-0.267
		c-0.379,0.06-0.766,0.302-1.156,0.729s-0.74,1.114-1.049,2.062l-2.699,9.596c-0.262,0.995-0.279,1.683-0.055,2.062
		s0.563,0.468,1.014,0.267c0.449-0.201,0.953-0.675,1.51-1.422C152.824,54.612,153.316,53.6,153.742,52.32z"/>
	<path fill="#FFFFFF" d="M164.05,55.625c-0.189,0.688-0.308,1.215-0.355,1.582c-0.047,0.367-0.053,0.646-0.018,0.835
		c0.036,0.189,0.095,0.32,0.178,0.391c0.083,0.071,0.184,0.143,0.303,0.214c-0.403,0.332-0.859,0.515-1.369,0.551
		c-0.51,0.035-0.966-0.071-1.368-0.32c-0.403-0.249-0.705-0.646-0.906-1.19s-0.184-1.231,0.054-2.062
		c0.545-1.942,1.007-3.583,1.386-4.922s0.688-2.446,0.924-3.323c0.237-0.876,0.427-1.558,0.569-2.044
		c0.142-0.485,0.254-0.864,0.337-1.137s0.137-0.468,0.16-0.587c0.023-0.118,0.059-0.236,0.106-0.355c0.023-0.118,0-0.189-0.07-0.213
		c-0.071-0.023-0.155-0.047-0.249-0.071c-0.095-0.023-0.19-0.047-0.284-0.071c-0.096-0.023-0.143-0.094-0.143-0.213
		c0-0.023,0.101-0.154,0.302-0.391c0.201-0.237,0.456-0.492,0.765-0.765c0.308-0.272,0.651-0.516,1.03-0.729s0.734-0.32,1.066-0.32
		c0.592,0,0.983,0.137,1.173,0.409s0.184,0.919-0.018,1.938s-0.604,2.535-1.208,4.549C165.81,49.394,165.021,52.143,164.05,55.625z
		 M167.889,38.921c-0.071-0.071-0.143-0.165-0.213-0.284c-0.071-0.118-0.214-0.261-0.427-0.427l-3.483-1.67
		c-0.284-0.118-0.527-0.284-0.729-0.498s-0.278-0.509-0.23-0.889c0.047-0.166,0.101-0.42,0.159-0.764
		c0.06-0.343,0.137-0.681,0.231-1.013c0.071-0.261,0.172-0.427,0.302-0.498c0.13-0.071,0.255-0.047,0.373,0.071l4.088,3.412
		c0.142,0.142,0.242,0.338,0.302,0.586c0.059,0.249,0.089,0.498,0.089,0.747c0,0.249-0.018,0.48-0.054,0.693
		c-0.035,0.214-0.065,0.344-0.089,0.392C168.09,38.945,167.983,38.992,167.889,38.921z"/>
	<path fill="#FFFFFF" d="M171.442,59.286c-0.119,0.592-0.386,1.096-0.8,1.511c-0.415,0.414-0.859,0.621-1.333,0.621
		s-0.829-0.207-1.065-0.621c-0.237-0.415-0.297-0.919-0.178-1.511c0.07-0.284,0.178-0.58,0.319-0.889
		c0.143-0.308,0.32-0.587,0.533-0.835c0.213-0.249,0.438-0.45,0.676-0.604c0.236-0.154,0.474-0.231,0.71-0.231
		c0.237,0,0.438,0.077,0.604,0.231s0.302,0.355,0.409,0.604c0.106,0.248,0.171,0.527,0.195,0.835
		C171.537,58.706,171.514,59.002,171.442,59.286z M179.084,31.102c0.876,0,1.693,0.196,2.452,0.586
		c0.758,0.391,1.368,0.93,1.83,1.617c0.462,0.688,0.747,1.499,0.854,2.435c0.106,0.937-0.03,1.961-0.409,3.075
		c-0.355,1.043-0.859,1.932-1.511,2.666s-1.345,1.38-2.079,1.937s-1.457,1.055-2.168,1.493s-1.303,0.883-1.776,1.332
		c-0.64,0.593-1.173,1.227-1.6,1.901c-0.427,0.676-0.765,1.333-1.013,1.973c-0.249,0.64-0.439,1.227-0.569,1.76
		s-0.23,0.954-0.302,1.262c-0.427,0.118-0.842,0.154-1.244,0.106c-0.332-0.048-0.663-0.16-0.995-0.338s-0.568-0.503-0.711-0.978
		c-0.095-0.284-0.106-0.675-0.035-1.173c0.071-0.497,0.225-1.042,0.462-1.635c0.236-0.592,0.568-1.208,0.995-1.848
		s0.947-1.231,1.563-1.777c0.593-0.545,1.285-1.049,2.079-1.511s1.594-0.936,2.399-1.421s1.563-1.001,2.274-1.547
		c0.711-0.544,1.303-1.173,1.777-1.883c0.474-0.711,0.77-1.428,0.889-2.151c0.118-0.723,0.101-1.38-0.054-1.973
		c-0.154-0.592-0.421-1.096-0.8-1.51s-0.841-0.681-1.386-0.8c-0.664-0.142-1.304-0.16-1.919-0.053
		c-0.616,0.106-1.19,0.314-1.724,0.622c-0.533,0.309-0.995,0.706-1.387,1.191c-0.391,0.486-0.682,1.025-0.87,1.617
		c-0.143,0.426-0.237,0.776-0.285,1.048c-0.047,0.272-0.083,0.504-0.106,0.693c-0.023,0.19-0.06,0.362-0.106,0.516
		c-0.048,0.154-0.143,0.325-0.284,0.515c-0.166,0.19-0.486,0.409-0.96,0.658c-0.474,0.248-0.9,0.433-1.279,0.551
		c-0.284,0.071-0.533,0.035-0.746-0.106c-0.237-0.166-0.355-0.379-0.355-0.641c-0.024-1.16,0.195-2.245,0.657-3.252
		c0.462-1.007,1.102-1.877,1.919-2.612c0.817-0.734,1.783-1.309,2.897-1.724C176.572,31.31,177.78,31.102,179.084,31.102z"/>
	<path fill="#FFFFFF" d="M218.32,26.819c0.165,0.51,0.142,1.072-0.071,1.688c-0.142,0.426-0.361,0.812-0.657,1.155
		c-0.297,0.344-0.61,0.646-0.942,0.907s-0.657,0.468-0.977,0.622c-0.32,0.154-0.563,0.243-0.729,0.267
		c-0.118,0.048-0.178,0.119-0.178,0.213c0.521,1.375,0.782,2.998,0.782,4.869c0,1.873-0.344,4.029-1.03,6.468
		c-0.806,2.892-1.808,5.355-3.004,7.393c-1.196,2.038-2.518,3.714-3.963,5.029s-2.985,2.274-4.62,2.879s-3.282,0.906-4.94,0.906
		c-1.517,0-2.796-0.225-3.838-0.675c-1.043-0.45-1.896-1.049-2.56-1.795c-0.663-0.747-1.154-1.594-1.475-2.542
		c-0.319-0.947-0.521-1.931-0.604-2.949s-0.065-2.021,0.054-3.004c0.118-0.982,0.29-1.877,0.516-2.683
		c0.225-0.806,0.474-1.486,0.746-2.044c0.272-0.557,0.539-0.894,0.8-1.013c0.142-0.071,0.338-0.065,0.586,0.018
		c0.249,0.083,0.51,0.208,0.782,0.373c0.272,0.166,0.516,0.355,0.729,0.569c0.213,0.213,0.344,0.426,0.391,0.64
		c0,0.048-0.089,0.237-0.267,0.568c-0.178,0.332-0.373,0.806-0.586,1.422s-0.403,1.368-0.568,2.257
		c-0.166,0.888-0.226,1.901-0.178,3.038c0.047,1.612,0.426,2.915,1.137,3.91s1.611,1.652,2.701,1.973
		c1.09,0.319,2.316,0.29,3.679-0.089s2.707-1.149,4.034-2.311c1.326-1.161,2.582-2.73,3.768-4.709
		c1.185-1.979,2.155-4.39,2.914-7.232c0.876-3.293,1.214-5.995,1.013-8.104c-0.201-2.108-0.729-3.726-1.581-4.851
		c-0.854-1.125-1.938-1.807-3.252-2.044c-1.315-0.236-2.637-0.112-3.963,0.373c-1.328,0.486-2.565,1.28-3.715,2.381
		c-1.149,1.102-1.996,2.423-2.541,3.963c-0.403,1.114-0.646,2.115-0.729,3.003s-0.035,1.647,0.143,2.274
		c0.178,0.629,0.456,1.097,0.835,1.404c0.379,0.309,0.829,0.427,1.351,0.355c0.782-0.095,1.303,0,1.563,0.284
		s0.338,0.616,0.231,0.995s-0.38,0.734-0.817,1.066c-0.438,0.332-0.954,0.497-1.546,0.497c-1.091,0-2.015-0.267-2.772-0.799
		c-0.759-0.533-1.31-1.28-1.652-2.239c-0.344-0.96-0.463-2.098-0.355-3.412c0.106-1.315,0.479-2.755,1.119-4.319
		c0.592-1.469,1.409-2.748,2.452-3.838c1.043-1.089,2.197-1.972,3.466-2.647c1.267-0.675,2.594-1.125,3.98-1.351
		c1.386-0.225,2.73-0.213,4.034,0.035c1.303,0.249,2.499,0.752,3.589,1.511s1.979,1.789,2.666,3.092
		c0.261,0,0.533-0.119,0.817-0.355s0.45-0.45,0.498-0.64c0.118-0.26,0.13-0.485,0.035-0.675c-0.095-0.189-0.272-0.402-0.533-0.64
		c-0.284-0.284-0.444-0.645-0.479-1.084c-0.036-0.438,0.112-0.835,0.444-1.19c0.331-0.379,0.704-0.581,1.119-0.604
		c0.414-0.023,0.823,0.071,1.227,0.285C217.846,25.925,218.154,26.31,218.32,26.819z M210.057,17.578
		c-0.391,0.107-0.717,0.374-0.978,0.8c-0.261,0.403-0.332,0.817-0.213,1.244c0.118,0.426,0.343,0.746,0.676,0.959
		c0.284,0.19,0.491,0.373,0.621,0.551s0.172,0.397,0.125,0.658c-0.024,0.142-0.084,0.284-0.178,0.426
		c-0.095,0.142-0.195,0.285-0.303,0.427c-0.106,0.142-0.207,0.267-0.302,0.373s-0.166,0.184-0.213,0.231
		c-0.119,0.142-0.173,0.261-0.16,0.355c0.012,0.095,0.065,0.172,0.16,0.231c0.094,0.06,0.207,0.083,0.337,0.071
		c0.131-0.012,0.255-0.054,0.374-0.125c0.165-0.071,0.385-0.213,0.657-0.427c0.272-0.213,0.551-0.474,0.835-0.782
		c0.284-0.308,0.539-0.657,0.765-1.048c0.225-0.391,0.373-0.812,0.444-1.262c0.094-0.663,0.005-1.226-0.267-1.688
		c-0.273-0.462-0.646-0.775-1.12-0.941C210.868,17.489,210.448,17.472,210.057,17.578z"/>
	<path fill="#FFFFFF" d="M240.143,33.127l-0.071,0.363c-0.119,0.362-0.314,0.7-0.587,1.015s-0.657,0.471-1.155,0.471h-0.497
		l-5.793,20.649c-0.19,0.688-0.314,1.215-0.373,1.582c-0.06,0.367-0.071,0.646-0.036,0.835c0.036,0.189,0.095,0.32,0.178,0.391
		c0.083,0.071,0.184,0.143,0.302,0.214c-0.308,0.261-0.592,0.421-0.853,0.479c-0.261,0.06-0.438,0.089-0.533,0.089
		c-0.261,0-0.533-0.041-0.817-0.124s-0.539-0.219-0.764-0.409c-0.226-0.189-0.415-0.438-0.569-0.746s-0.23-0.688-0.23-1.138
		c-0.309,0.593-0.711,1.144-1.209,1.653c-0.497,0.51-1.125,0.764-1.884,0.764c-0.71,0-1.309-0.147-1.795-0.444
		c-0.485-0.296-0.864-0.675-1.137-1.138c-0.272-0.462-0.438-0.971-0.498-1.527c-0.059-0.557-0.018-1.107,0.125-1.653l2.701-9.596
		c0.449-1.54,1.119-2.653,2.008-3.341s1.984-1.031,3.287-1.031c0.593,0,1.09,0.131,1.493,0.392c0.402,0.261,0.734,0.557,0.995,0.889
		l1.884-6.789h-6.148l0.106-0.362c0.118-0.362,0.308-0.7,0.568-1.014s0.651-0.472,1.173-0.472h4.834l1.173-4.141
		c0.023-0.188,0.071-0.389,0.142-0.601c0.048-0.165,0.095-0.342,0.143-0.531c0.047-0.188,0.095-0.342,0.143-0.46
		c0.022-0.118,0.005-0.188-0.054-0.212c-0.06-0.023-0.143-0.047-0.249-0.07c-0.106-0.023-0.207-0.047-0.302-0.071
		c-0.095-0.023-0.143-0.094-0.143-0.213c0-0.023,0.101-0.152,0.303-0.389c0.201-0.236,0.456-0.49,0.764-0.761
		c0.308-0.271,0.651-0.513,1.031-0.725c0.378-0.212,0.733-0.319,1.065-0.319s0.593,0.047,0.782,0.142s0.325,0.207,0.409,0.336
		c0.082,0.13,0.136,0.271,0.159,0.424s0.036,0.29,0.036,0.407c0,0.118-0.042,0.342-0.125,0.672
		c-0.083,0.331-0.172,0.672-0.267,1.026c-0.095,0.425-0.213,0.874-0.355,1.345l-1.173,4.141H240.143z M231.968,43.328
		c-0.071-0.331-0.226-0.628-0.462-0.889c-0.237-0.261-0.604-0.391-1.102-0.391c-0.262,0-0.498,0.083-0.711,0.249
		c-0.214,0.166-0.421,0.379-0.622,0.64c-0.202,0.261-0.38,0.557-0.533,0.889c-0.154,0.332-0.279,0.675-0.373,1.03l-2.701,9.596
		c-0.237,0.901-0.303,1.522-0.195,1.866c0.106,0.344,0.337,0.516,0.692,0.516c0.474,0,0.918-0.231,1.333-0.693
		c0.414-0.462,0.787-0.978,1.119-1.546c0.379-0.663,0.723-1.422,1.031-2.274L231.968,43.328z"/>
	<path fill="#FFFFFF" d="M248.139,40.751c0.45-0.225,0.883-0.308,1.297-0.248c0.415,0.06,0.776,0.243,1.084,0.551
		s0.498,0.711,0.569,1.208c-0.262,0.071-0.475,0.16-0.64,0.267c-0.166,0.106-0.326,0.309-0.48,0.604
		c-0.154,0.297-0.319,0.723-0.497,1.279s-0.403,1.315-0.676,2.274c-0.272,0.96-0.604,2.168-0.995,3.625
		c-0.391,1.457-0.883,3.229-1.475,5.313c-0.19,0.688-0.314,1.215-0.373,1.582c-0.06,0.367-0.071,0.646-0.036,0.835
		c0.036,0.189,0.095,0.32,0.178,0.391c0.083,0.071,0.184,0.143,0.303,0.214c-0.355,0.308-0.747,0.492-1.173,0.551
		c-0.427,0.059-0.83,0.012-1.209-0.143c-0.379-0.153-0.699-0.414-0.959-0.781c-0.262-0.367-0.403-0.812-0.427-1.333
		c-0.64,1.137-1.381,1.843-2.222,2.114c-0.841,0.272-1.611,0.236-2.31-0.106c-0.699-0.343-1.244-0.924-1.635-1.741
		c-0.392-0.817-0.444-1.735-0.16-2.755l2.701-9.596c0.449-1.54,1.119-2.653,2.008-3.341s1.984-1.031,3.287-1.031
		c0.663,0,1.203,0.16,1.617,0.48c0.415,0.319,0.752,0.657,1.014,1.013C247.286,41.386,247.688,40.977,248.139,40.751z
		 M245.064,47.61c0.319-1.125,0.557-1.972,0.711-2.541c0.153-0.568,0.267-0.959,0.338-1.173c0.07-0.213,0.142-0.426,0.213-0.64
		c-0.095-0.308-0.261-0.586-0.498-0.835c-0.236-0.249-0.592-0.373-1.065-0.373c-0.475,0-0.884,0.243-1.227,0.729
		c-0.344,0.485-0.693,1.238-1.049,2.257s-0.74,2.305-1.154,3.855c-0.415,1.553-0.919,3.407-1.511,5.563
		c-0.262,0.995-0.284,1.683-0.071,2.062s0.545,0.468,0.995,0.267s0.953-0.675,1.511-1.422c0.557-0.746,1.048-1.759,1.475-3.038
		C244.3,50.307,244.744,48.736,245.064,47.61z M242.346,38.85c0.071,0.096,0.178,0.166,0.319,0.214
		c0.261,0.071,0.539,0.035,0.836-0.106c0.296-0.143,0.503-0.285,0.621-0.427c0.048-0.071,0.214-0.267,0.498-0.587
		c0.284-0.32,0.592-0.657,0.924-1.013c0.379-0.427,0.794-0.9,1.244-1.422c0.165,0.284,0.32,0.557,0.462,0.817
		c0.118,0.237,0.243,0.475,0.373,0.711c0.13,0.237,0.243,0.45,0.338,0.64c0.189,0.332,0.338,0.604,0.444,0.817
		c0.106,0.214,0.254,0.32,0.444,0.32c0.023,0,0.101-0.006,0.23-0.018c0.131-0.012,0.278-0.023,0.444-0.036
		c0.166-0.012,0.332-0.023,0.498-0.035c0.165-0.012,0.296-0.029,0.391-0.054c0.189-0.022,0.35-0.076,0.48-0.159
		c0.13-0.083,0.183-0.172,0.159-0.267c0-0.048-0.101-0.272-0.302-0.676c-0.201-0.403-0.433-0.853-0.693-1.351
		s-0.515-0.989-0.764-1.475c-0.249-0.485-0.421-0.847-0.516-1.084c-0.166-0.379-0.302-0.616-0.408-0.711
		c-0.107-0.094-0.208-0.142-0.303-0.142c-0.048,0-0.148,0.018-0.302,0.053c-0.154,0.036-0.326,0.083-0.516,0.143
		s-0.361,0.119-0.516,0.177c-0.154,0.06-0.255,0.113-0.302,0.16c-0.023,0.048-0.142,0.202-0.355,0.462
		c-0.213,0.261-0.468,0.581-0.764,0.96c-0.297,0.379-0.617,0.788-0.96,1.226c-0.344,0.438-0.664,0.847-0.96,1.226
		c-0.296,0.379-0.545,0.699-0.746,0.96s-0.314,0.403-0.338,0.427C242.262,38.672,242.274,38.756,242.346,38.85z"/>
	<path fill="#FFFFFF" d="M260.188,55.696c-0.19,0.688-0.314,1.215-0.373,1.582c-0.06,0.367-0.071,0.646-0.036,0.835
		c0.036,0.189,0.101,0.319,0.196,0.391c0.094,0.071,0.2,0.143,0.319,0.213c-0.403,0.333-0.853,0.516-1.351,0.552
		c-0.497,0.035-0.948-0.065-1.351-0.303c-0.403-0.236-0.705-0.615-0.906-1.137s-0.208-1.173-0.018-1.955
		c-0.972,1.517-1.926,2.506-2.861,2.968c-0.937,0.462-1.736,0.568-2.398,0.319c-0.664-0.248-1.132-0.775-1.404-1.581
		s-0.243-1.706,0.089-2.701l3.021-10.698c0.189-0.687,0.314-1.22,0.374-1.599c0.059-0.379,0.07-0.663,0.035-0.854
		c-0.035-0.189-0.102-0.319-0.195-0.391c-0.095-0.071-0.202-0.143-0.32-0.213c0.403-0.355,0.858-0.545,1.368-0.569
		c0.51-0.023,0.966,0.096,1.369,0.355c0.402,0.261,0.698,0.67,0.888,1.227s0.178,1.238-0.035,2.043l-3.021,10.698
		c-0.285,1.019-0.392,1.706-0.32,2.062s0.254,0.456,0.551,0.302c0.296-0.153,0.663-0.509,1.102-1.066
		c0.438-0.557,0.895-1.244,1.369-2.062c0.474-0.817,0.929-1.711,1.368-2.683c0.438-0.972,0.787-1.943,1.048-2.915
		c0.474-1.657,0.841-2.949,1.103-3.873c0.26-0.925,0.432-1.623,0.515-2.098c0.083-0.474,0.077-0.793-0.018-0.959
		s-0.249-0.32-0.462-0.462c0.402-0.355,0.858-0.545,1.368-0.569c0.51-0.023,0.965,0.096,1.368,0.355
		c0.403,0.261,0.699,0.67,0.889,1.227s0.178,1.238-0.035,2.043L260.188,55.696z"/>
	<path fill="#FFFFFF" d="M267.401,59.286c-0.119,0.592-0.386,1.096-0.8,1.511c-0.415,0.414-0.859,0.621-1.333,0.621
		s-0.829-0.207-1.065-0.621c-0.237-0.415-0.297-0.919-0.178-1.511c0.07-0.284,0.178-0.58,0.319-0.889
		c0.143-0.308,0.32-0.587,0.533-0.835c0.213-0.249,0.438-0.45,0.676-0.604c0.236-0.154,0.474-0.231,0.71-0.231
		c0.237,0,0.438,0.077,0.604,0.231s0.302,0.355,0.409,0.604c0.106,0.248,0.171,0.527,0.195,0.835
		C267.496,58.706,267.473,59.002,267.401,59.286z M275.043,31.102c0.876,0,1.693,0.196,2.452,0.586
		c0.758,0.391,1.368,0.93,1.83,1.617c0.462,0.688,0.747,1.499,0.854,2.435c0.106,0.937-0.03,1.961-0.409,3.075
		c-0.355,1.043-0.859,1.932-1.511,2.666s-1.345,1.38-2.079,1.937s-1.457,1.055-2.168,1.493s-1.303,0.883-1.776,1.332
		c-0.64,0.593-1.173,1.227-1.6,1.901c-0.427,0.676-0.765,1.333-1.013,1.973c-0.249,0.64-0.439,1.227-0.569,1.76
		s-0.23,0.954-0.302,1.262c-0.427,0.118-0.842,0.154-1.244,0.106c-0.332-0.048-0.663-0.16-0.995-0.338s-0.568-0.503-0.711-0.978
		c-0.095-0.284-0.106-0.675-0.035-1.173c0.071-0.497,0.225-1.042,0.462-1.635c0.236-0.592,0.568-1.208,0.995-1.848
		s0.947-1.231,1.563-1.777c0.593-0.545,1.285-1.049,2.079-1.511s1.594-0.936,2.399-1.421s1.563-1.001,2.274-1.547
		c0.711-0.544,1.303-1.173,1.777-1.883c0.474-0.711,0.77-1.428,0.889-2.151c0.118-0.723,0.101-1.38-0.054-1.973
		c-0.154-0.592-0.421-1.096-0.8-1.51s-0.841-0.681-1.386-0.8c-0.664-0.142-1.304-0.16-1.919-0.053
		c-0.616,0.106-1.19,0.314-1.724,0.622c-0.533,0.309-0.995,0.706-1.387,1.191c-0.391,0.486-0.682,1.025-0.87,1.617
		c-0.143,0.426-0.237,0.776-0.285,1.048c-0.047,0.272-0.083,0.504-0.106,0.693c-0.023,0.19-0.06,0.362-0.106,0.516
		c-0.048,0.154-0.143,0.325-0.284,0.515c-0.166,0.19-0.486,0.409-0.96,0.658c-0.474,0.248-0.9,0.433-1.279,0.551
		c-0.284,0.071-0.533,0.035-0.746-0.106c-0.237-0.166-0.355-0.379-0.355-0.641c-0.024-1.16,0.195-2.245,0.657-3.252
		c0.462-1.007,1.102-1.877,1.919-2.612c0.817-0.734,1.783-1.309,2.897-1.724C272.531,31.31,273.739,31.102,275.043,31.102z"/>
</g>
</svg>
