<?xml version="1.0" encoding="utf-8"?>
<!-- Generator: Adobe Illustrator 16.0.0, SVG Export Plug-In . SVG Version: 6.00 Build 0)  -->
<!DOCTYPE svg PUBLIC "-//W3C//DTD SVG 1.1//EN" "http://www.w3.org/Graphics/SVG/1.1/DTD/svg11.dtd">
<svg version="1.1" id="Layer_1" xmlns="http://www.w3.org/2000/svg" xmlns:xlink="http://www.w3.org/1999/xlink" x="0px" y="0px"
	 width="297.039px" height="46px" viewBox="0 0 297.039 46" enable-background="new 0 0 297.039 46" xml:space="preserve">
<g>
	<path fill="#FFFFFF" d="M260.734,32.568c-1.234,2.438-3.135,3.654-5.701,3.654c-1.706,0-3.156-0.574-4.352-1.721
		c-1.207-1.16-1.812-2.586-1.812-4.279c0-1.678,0.606-3.107,1.821-4.289c1.209-1.167,2.654-1.75,4.341-1.75
		c1.263,0,2.405,0.331,3.43,0.993c1.052,0.683,1.81,1.604,2.272,2.765h-1.617c-0.854-1.625-2.201-2.438-4.044-2.438
		c-1.317,0-2.433,0.451-3.347,1.352c-0.93,0.9-1.394,2.01-1.394,3.328c0,1.33,0.457,2.449,1.372,3.355
		c0.914,0.908,2.037,1.361,3.367,1.361c1.891,0,3.238-0.777,4.044-2.334h1.618V32.568z"/>
	<path fill="#FFFFFF" d="M272.682,34.441c-1.181,1.188-2.594,1.781-4.238,1.781c-1.616,0-3.017-0.588-4.196-1.762
		c-1.188-1.174-1.781-2.564-1.781-4.178c0-1.664,0.58-3.094,1.74-4.289c1.167-1.207,2.58-1.812,4.237-1.812
		c1.632,0,3.041,0.595,4.229,1.781s1.781,2.601,1.781,4.237C274.452,31.848,273.861,33.262,272.682,34.441z M271.668,26.887
		c-0.889-0.921-1.955-1.382-3.204-1.382c-1.282,0-2.364,0.478-3.245,1.433c-0.859,0.928-1.289,2.039-1.289,3.328
		c0,1.256,0.439,2.34,1.32,3.256c0.887,0.92,1.958,1.381,3.214,1.381c1.297,0,2.382-0.471,3.255-1.412
		c0.848-0.922,1.27-2.037,1.27-3.348C272.988,28.887,272.548,27.803,271.668,26.887z"/>
	<path fill="#FFFFFF" d="M292.12,35.945v-6.643c0-1.113-0.235-2-0.707-2.663c-0.546-0.757-1.351-1.136-2.415-1.136
		s-1.867,0.379-2.406,1.136c-0.479,0.663-0.716,1.55-0.716,2.663v6.643h-1.464v-6.643c0-1.113-0.239-2-0.717-2.663
		c-0.539-0.757-1.342-1.136-2.405-1.136c-1.072,0-1.877,0.379-2.416,1.136c-0.478,0.663-0.717,1.55-0.717,2.663v6.643h-1.464V24.48
		h1.464v1.32c0.683-1.078,1.727-1.617,3.133-1.617c1.746,0,3.028,0.733,3.849,2.201c0.922-1.467,2.207-2.201,3.859-2.201
		c1.434,0,2.564,0.475,3.398,1.424c0.797,0.9,1.196,2.074,1.196,3.521v6.816H292.12L292.12,35.945z"/>
</g>
<g>
	<path fill="#FFFFFF" d="M244.479,37.014c0.332,0.395,0.479,0.844,0.439,1.35c-0.044,0.518-0.264,0.939-0.656,1.27
		c-0.395,0.332-0.849,0.477-1.363,0.432c-0.508-0.041-0.93-0.258-1.262-0.645c-0.338-0.395-0.482-0.844-0.441-1.361
		c0.044-0.506,0.258-0.926,0.658-1.258c0.393-0.338,0.842-0.484,1.349-0.441C243.717,36.398,244.141,36.617,244.479,37.014z"/>
	<path fill="#FFFFFF" d="M247.761,14.031c-0.028,0.344-0.163,1.127-0.399,2.339c-0.235,1.213-0.571,2.892-1.01,5.037
		c-0.451,2.126-0.871,4.225-1.271,6.283c-0.396,2.066-0.757,4.105-1.087,6.121l-1.192-0.098c0.033-2.07,0.041-4.164,0.021-6.273
		c-0.021-2.111-0.07-4.256-0.15-6.427c-0.099-2.185-0.158-3.9-0.188-5.145c-0.028-1.244-0.028-2.029-0.002-2.359
		c0.106-1.296,0.425-2.276,0.961-2.94c0.562-0.636,1.257-0.918,2.094-0.85c0.791,0.067,1.378,0.453,1.76,1.165
		c0.419,0.743,0.584,1.72,0.482,2.923L247.761,14.031z"/>
</g>
<g>
	<circle fill="#FFFFFF" cx="18.824" cy="29.838" r="3.629"/>
	<g>
		<path fill="#FFFFFF" d="M33.869,18.924v-4.222H18.647c-8.287,0-15.005,6.717-15.005,15.006c0,8.286,6.718,15.003,15.005,15.003
			c8.286,0,15.004-6.717,15.004-15.003v-5.699h-3.954c-1.43,0.021-2.584,1.181-2.591,2.613v3.086c0,4.671-3.788,8.458-8.459,8.458
			c-4.672,0-8.459-3.787-8.459-8.458c0-4.673,3.787-8.46,8.459-8.46h12.948C32.855,21.219,33.869,20.19,33.869,18.924z"/>
		<path fill="#FFFFFF" d="M33.779,8.734V1.289h-1.265c-2.916,0-5.279,2.364-5.279,5.279v4.758h3.951
			C32.619,11.326,33.779,10.166,33.779,8.734z"/>
	</g>
</g>
<g>
	<path fill="#FFFFFF" d="M41.062,17.419h-0.2c3.106,0,5.517,0.862,7.233,2.586c1.89,1.899,2.835,4.185,2.835,6.859
		c0,2.682-0.945,4.968-2.835,6.857c-1.716,1.725-4.127,2.586-7.233,2.586h0.2v0.025h-1.586V17.395h1.586V17.419z M41.062,19.019
		v15.69c2.523,0,4.489-0.708,5.896-2.124c1.574-1.573,2.361-3.48,2.361-5.721c0-2.232-0.787-4.14-2.361-5.722
		C45.551,19.727,43.585,19.019,41.062,19.019z"/>
	<path fill="#FFFFFF" d="M55.978,20.874c0.258,0.254,0.387,0.561,0.387,0.918c0,0.367-0.129,0.677-0.387,0.931
		c-0.258,0.254-0.566,0.381-0.925,0.381c-0.358,0-0.666-0.127-0.924-0.381s-0.387-0.564-0.387-0.931
		c0-0.358,0.129-0.664,0.387-0.918c0.258-0.254,0.566-0.381,0.924-0.381C55.412,20.493,55.72,20.62,55.978,20.874z M55.84,24.503
		v11.83h-1.586v-11.83H55.84z"/>
	<path fill="#FFFFFF" d="M72.505,36.333h-1.586v-1.736c-1.408,1.374-3.023,2.062-4.847,2.062c-1.816,0-3.367-0.644-4.653-1.931
		c-1.287-1.286-1.93-2.838-1.93-4.653c0-1.824,0.644-3.379,1.93-4.666s2.837-1.93,4.653-1.93c1.824,0,3.439,0.688,4.847,2.061
		v-1.036h1.586V36.333z M70.919,31.062v-1.986c-0.175-0.941-0.625-1.774-1.349-2.499c-0.966-0.966-2.132-1.449-3.498-1.449
		c-1.366,0-2.532,0.483-3.498,1.449c-0.966,0.967-1.449,2.133-1.449,3.498c0,1.366,0.483,2.528,1.449,3.485
		c0.966,0.958,2.132,1.437,3.498,1.437c1.366,0,2.532-0.479,3.498-1.437C70.294,32.827,70.744,31.994,70.919,31.062z"/>
	<path fill="#FFFFFF" d="M88.958,36.333h-1.586v-1.736c-1.408,1.374-3.023,2.062-4.847,2.062c-1.816,0-3.367-0.644-4.653-1.931
		c-1.287-1.286-1.93-2.838-1.93-4.653c0-1.824,0.644-3.379,1.93-4.666s2.837-1.93,4.653-1.93c1.824,0,3.439,0.688,4.847,2.061
		v-8.145h1.586V36.333z M87.371,31.062v-1.986c-0.175-0.941-0.625-1.774-1.349-2.499c-0.966-0.966-2.132-1.449-3.498-1.449
		c-1.366,0-2.532,0.483-3.498,1.449c-0.966,0.967-1.449,2.133-1.449,3.498c0,1.366,0.483,2.528,1.449,3.485
		c0.966,0.958,2.132,1.437,3.498,1.437c1.366,0,2.532-0.479,3.498-1.437C86.746,32.827,87.196,31.994,87.371,31.062z"/>
	<path fill="#FFFFFF" d="M94.629,20.874c0.258,0.254,0.387,0.561,0.387,0.918c0,0.367-0.129,0.677-0.387,0.931
		c-0.258,0.254-0.566,0.381-0.925,0.381c-0.358,0-0.666-0.127-0.924-0.381s-0.387-0.564-0.387-0.931
		c0-0.358,0.129-0.664,0.387-0.918c0.258-0.254,0.566-0.381,0.924-0.381C94.063,20.493,94.371,20.62,94.629,20.874z M94.492,24.503
		v11.83h-1.586v-11.83H94.492z"/>
	<path fill="#FFFFFF" d="M101.212,33.935c0.783,0.708,1.807,1.062,3.073,1.062c1.366,0,2.531-0.479,3.498-1.437
		c0.125-0.125,0.283-0.304,0.475-0.537l1.612,0.575c-0.35,0.491-0.654,0.866-0.912,1.124c-1.291,1.291-2.848,1.937-4.672,1.937
		c-1.816,0-3.367-0.644-4.654-1.931c-1.287-1.286-1.93-2.842-1.93-4.666c0-1.815,0.643-3.366,1.93-4.653
		c1.287-1.287,2.838-1.93,4.654-1.93c1.557,0,2.923,0.467,4.097,1.398c0.191,0.158,0.383,0.334,0.575,0.525
		c0.066,0.074,0.191,0.213,0.375,0.412l-0.962,0.962L101.212,33.935z M106.996,25.914c-0.683-0.524-1.586-0.787-2.71-0.787
		c-1.358,0-2.52,0.481-3.486,1.443c-0.966,0.962-1.449,2.126-1.449,3.491c0,1.125,0.262,2.028,0.787,2.711L106.996,25.914z"/>
	<path fill="#FFFFFF" d="M112.868,24.503h1.586v-0.112c0.383-0.375,1.062-0.563,2.036-0.563c1,0,1.853,0.354,2.561,1.063
		l0.262,0.262l0.275-0.262c0.708-0.709,1.562-1.063,2.561-1.063c1.007,0,1.861,0.354,2.561,1.063
		c0.674,0.674,1.028,1.49,1.062,2.448v8.994h-1.586v-9.257c-0.017-0.342-0.212-0.695-0.587-1.062
		c-0.4-0.399-0.883-0.601-1.449-0.601c-0.558,0-1.039,0.201-1.443,0.601c-0.404,0.399-0.606,0.899-0.606,1.499v8.819h-1.574v-9.257
		h-0.012c-0.017-0.342-0.208-0.695-0.575-1.062c-0.408-0.399-0.891-0.601-1.449-0.601c-0.566,0-1.045,0.201-1.437,0.601
		c-0.358,0.341-0.558,0.758-0.6,1.249v9.069h-1.586V24.503z"/>
	<path fill="#FFFFFF" d="M129.521,17.395h1.586v7.32c0.616-0.6,1.574-0.898,2.873-0.898c1.407,0,2.555,0.445,3.442,1.336
		c0.887,0.892,1.343,2.007,1.368,3.348v7.833h-1.586v-7.732c0-0.883-0.318-1.637-0.956-2.262c-0.637-0.624-1.393-0.937-2.268-0.937
		s-1.632,0.309-2.273,0.925c-0.275,0.283-0.475,0.554-0.6,0.812v9.194h-1.586V17.395z"/>
	<path fill="#FFFFFF" d="M155.241,36.333h-1.586v-1.736c-1.407,1.374-3.023,2.062-4.848,2.062c-1.815,0-3.366-0.644-4.653-1.931
		c-1.287-1.286-1.93-2.838-1.93-4.653c0-1.824,0.644-3.379,1.93-4.666s2.837-1.93,4.653-1.93c1.824,0,3.44,0.688,4.848,2.061v-1.036
		h1.586V36.333z M153.655,31.062v-1.986c-0.175-0.941-0.625-1.774-1.35-2.499c-0.966-0.966-2.132-1.449-3.498-1.449
		c-1.366,0-2.531,0.483-3.498,1.449c-0.966,0.967-1.449,2.133-1.449,3.498c0,1.366,0.483,2.528,1.449,3.485
		c0.966,0.958,2.132,1.437,3.498,1.437c1.366,0,2.532-0.479,3.498-1.437C153.03,32.827,153.48,31.994,153.655,31.062z"/>
	<path fill="#FFFFFF" d="M160.913,20.874c0.258,0.254,0.387,0.561,0.387,0.918c0,0.367-0.129,0.677-0.387,0.931
		c-0.259,0.254-0.566,0.381-0.925,0.381s-0.666-0.127-0.924-0.381c-0.259-0.254-0.388-0.564-0.388-0.931
		c0-0.358,0.129-0.664,0.388-0.918c0.258-0.254,0.565-0.381,0.924-0.381S160.654,20.62,160.913,20.874z M160.775,24.503v11.83
		h-1.587v-11.83H160.775z"/>
	<path fill="#FFFFFF" d="M177.44,36.333h-1.586v-1.736c-1.407,1.374-3.023,2.062-4.848,2.062c-1.815,0-3.366-0.644-4.653-1.931
		c-1.286-1.286-1.93-2.838-1.93-4.653c0-1.824,0.644-3.379,1.93-4.666c1.287-1.287,2.838-1.93,4.653-1.93
		c1.824,0,3.44,0.688,4.848,2.061v-8.145h1.586V36.333z M175.854,31.062v-1.986c-0.175-0.941-0.625-1.774-1.35-2.499
		c-0.966-0.966-2.132-1.449-3.498-1.449c-1.365,0-2.531,0.483-3.497,1.449c-0.967,0.967-1.449,2.133-1.449,3.498
		c0,1.366,0.482,2.528,1.449,3.485c0.966,0.958,2.132,1.437,3.497,1.437c1.366,0,2.532-0.479,3.498-1.437
		C175.229,32.827,175.68,31.994,175.854,31.062z"/>
	<path fill="#FFFFFF" d="M186.123,36.495c-1.491,0-2.68-0.443-3.566-1.33c-0.888-0.887-1.344-2.005-1.368-3.354v-7.333h1.586v7.233
		c0,0.883,0.321,1.632,0.962,2.248c0.633,0.634,1.425,0.95,2.374,0.95c0.874,0,1.63-0.313,2.268-0.938
		c0.637-0.624,0.955-1.378,0.955-2.261v-7.233h1.587v7.333c-0.025,1.35-0.479,2.466-1.361,3.349
		C188.667,36.05,187.521,36.495,186.123,36.495z"/>
	<path fill="#FFFFFF" d="M200.502,23.479c1.823,0,3.377,0.643,4.659,1.93s1.924,2.842,1.924,4.666c0,1.815-0.642,3.367-1.924,4.653
		c-1.282,1.287-2.836,1.931-4.659,1.931c-1.816,0-3.367-0.644-4.653-1.931c-1.287-1.286-1.931-2.838-1.931-4.653
		c0-1.824,0.644-3.379,1.931-4.666C197.135,24.121,198.686,23.479,200.502,23.479z M197.004,26.576
		c-0.966,0.967-1.449,2.133-1.449,3.498c0,1.366,0.483,2.528,1.449,3.485c0.966,0.958,2.132,1.437,3.498,1.437
		c1.365,0,2.531-0.479,3.498-1.437c0.966-0.957,1.448-2.119,1.448-3.485c0-1.365-0.482-2.531-1.448-3.498
		c-0.967-0.966-2.133-1.449-3.498-1.449C199.136,25.127,197.97,25.61,197.004,26.576z"/>
	<path fill="#FFFFFF" d="M211.669,27.351v8.982h-1.586v-11.83h1.586v0.337c0.684-0.683,1.687-1.023,3.011-1.023
		c1.407,0,2.555,0.445,3.442,1.336c0.887,0.892,1.343,2.007,1.367,3.348v7.833h-1.573v-7.732c0-0.883-0.321-1.637-0.962-2.262
		c-0.642-0.624-1.399-0.937-2.274-0.937c-0.874,0-1.632,0.309-2.273,0.925C212.057,26.677,211.811,27.018,211.669,27.351z"/>
	<path fill="#FFFFFF" d="M234.268,34.696l-0.087,0.025c-1.291,1.291-2.849,1.937-4.673,1.937c-1.815,0-3.366-0.644-4.653-1.931
		c-1.286-1.286-1.93-2.838-1.93-4.653c0-1.824,0.644-3.377,1.93-4.66c1.287-1.281,2.838-1.923,4.653-1.923
		c1.824,0,3.44,0.683,4.848,2.048v-1.036h1.586v9.044c0,1.766-0.629,3.277-1.886,4.535c-1.283,1.282-2.832,1.924-4.647,1.924
		c-1.824,0-3.381-0.642-4.672-1.924c-0.259-0.267-0.563-0.642-0.912-1.124l1.611-0.575c0.191,0.225,0.35,0.4,0.475,0.524
		c0.967,0.967,2.132,1.449,3.498,1.449c1.357,0,2.52-0.482,3.485-1.449C233.769,36.033,234.227,35.296,234.268,34.696z
		 M234.343,29.013c-0.184-0.916-0.629-1.729-1.337-2.437c-0.966-0.966-2.132-1.449-3.498-1.449c-1.365,0-2.531,0.483-3.497,1.449
		c-0.967,0.967-1.449,2.133-1.449,3.498c0,1.366,0.482,2.53,1.449,3.492c0.966,0.962,2.132,1.442,3.497,1.442
		c1.366,0,2.532-0.482,3.498-1.449c0.7-0.699,1.146-1.503,1.337-2.411V29.013z"/>
</g>
</svg>
