<?xml version="1.0" encoding="utf-8"?>
<!-- Generator: Adobe Illustrator 16.0.0, SVG Export Plug-In . SVG Version: 6.00 Build 0)  -->
<!DOCTYPE svg PUBLIC "-//W3C//DTD SVG 1.1//EN" "http://www.w3.org/Graphics/SVG/1.1/DTD/svg11.dtd">
<svg version="1.1" id="Layer_1" xmlns="http://www.w3.org/2000/svg" xmlns:xlink="http://www.w3.org/1999/xlink" x="0px" y="0px"
	 width="320px" height="280px" viewBox="0 0 320 280" enable-background="new 0 0 320 280" xml:space="preserve">
<rect fill="#FFFFFF" width="320" height="280"/>
<g>
	<path fill="#FF0000" d="M153.129,120.917c2.939,0.107,5.915,0.21,8.891,0.365c10.714,0.553,21.093-1.115,31.075-4.973
		c5.398-2.088,10.282-5.063,13.869-9.809c1.068-1.41,1.404-2.592,0.564-4.361c-2.04-4.337-1.932-4.386-6.731-4.373
		c-4.523,0-9.046,0.113-13.558-0.036c-1.271-0.036-2.928-0.492-3.552-1.374c-0.911-1.254-0.168-2.669,1.141-3.762
		c0.588-0.504,0.875-1.607,0.947-2.483c0.804-10.786,5.711-19.448,14.05-26.107c5.087-4.067,11.051-6.438,17.529-7.445
		c0.6-0.096,1.176-0.144,2.34-0.294c-0.78-0.905-1.392-1.422-1.74-2.063c-0.407-0.762-0.96-1.71-0.779-2.394
		c0.204-0.678,1.163-1.512,1.859-1.613c1.896-0.229,3.852-0.271,5.747-0.061c0.828,0.084,1.979,0.798,2.208,1.5
		c0.252,0.737-0.324,1.842-0.78,2.663c-0.288,0.582-0.983,0.96-1.836,1.758c2.22,0.48,3.876,0.828,5.579,1.218
		c12.274,2.85,20.901,10.139,25.652,21.759c1.5,3.689,1.943,7.793,2.939,11.687c0.192,0.762,0.492,1.667,1.056,2.087
		c1.284,0.973,1.692,2.262,0.924,3.378c-0.575,0.822-1.932,1.512-2.939,1.536c-5.591,0.149-11.218,0.329-16.81-0.013
		c-4.559-0.281-8.063,1.818-11.638,4.056c-4.487,2.802-9.022,5.501-11.494,10.528c-0.54,1.092-0.816,1.866,0.18,2.825
		c1.38,1.326,1.404,2.826,0.528,4.596c-5.004,10.091-12.49,17.77-22.545,22.754c-4.199,2.088-8.759,3.462-13.222,4.938
		c-1.607,0.516-1.92,1.008-1.368,2.567c2.496,7.175,3.084,14.632,3,22.179c-0.024,0.888,0.12,1.775,0.228,3.084
		c3.324,0,6.443-0.024,9.587,0.012c6.479,0.084,12.946,1.032,18.597,4.247c3.384,1.932,6.216,5.111,8.879,8.111
		c9.095,10.342,17.997,20.84,26.972,31.255c2.088,2.424,3.768,2.627,6.312,0.708c2.268-1.704,4.354-3.647,6.694-5.208
		c2.063-1.367,4.476-1.487,6.839-0.552c1.979,0.769,2.208,1.512,0.864,3.191c-4.176,5.292-8.435,10.511-12.634,15.79
		c-3,3.743-5.915,7.583-9.035,11.254c-0.768,0.9-2.195,1.968-3.119,1.812c-1.08-0.18-2.16-1.499-2.832-2.556
		c-0.779-1.176-1.079-2.615-1.632-4.139c-1.464,0.924-2.651,1.703-4.199,2.676c-1.247-1.8-2.399-3.504-3.6-5.231
		c-6.599-9.599-13.678-18.813-21.956-27.056c-1.655-1.644-2.712-1.476-4.379-0.132c-10.055,7.918-20.925,14.373-33.439,17.685
		c-1.968,0.528-4.031,0.864-6.07,1.224c-0.648,0.133-1.32,0.024-2.28,0.024c-0.407-4.151-0.863-8.23-1.344-12.91
		c-1.08,1.284-1.943,2.16-2.688,3.144c-6.503,8.566-13.894,16.27-22.389,22.94c-5.039,3.959-10.546,4.176-16.317,2.928
		c-10.966-2.352-21.62-5.675-31.771-10.486c-5.363-2.567-10.559-5.507-15.718-8.471c-3.048-1.728-5.159-1.68-7.559,0.876
		c-2.724,2.915-5.291,6.143-9.311,7.187c-1.8,0.48-3.84,0.084-5.759-0.216c-1.309-0.24-1.561-1.128-0.648-2.388
		c5.159-7.211,10.246-14.481,15.382-21.729c1.812-2.544,3.575-5.184,5.567-7.583c0.768-0.96,2.315-2.111,3.191-1.907
		c1.104,0.275,1.991,1.787,2.711,2.939c0.685,1.08,0.973,2.399,1.561,3.899c1.691-1.428,2.951-2.508,4.199-3.575
		c3.995,2.651,7.75,5.65,11.926,7.811c5.951,3.071,12.106,5.807,18.405,8.135c7.066,2.592,10.99-0.456,13.846-5.951
		c3.455-6.695,6.263-13.75,9.106-20.757c1.068-2.58,1.392-5.315-0.828-7.942c-1.104-1.332-1.319-3.468-1.932-5.256
		c0.192-0.204,0.372-0.407,0.576-0.636c-1.26,0-2.508-0.023-3.756,0.012c-7.366,0.24-14.709,0.517-22.076,0.744
		c-1.224,0.024-2.472,0.048-3.647-0.191c-1.115-0.217-2.184-0.816-3.275-1.236c0.564-1.031,0.996-2.22,1.716-3.131
		c2.436-3,5.423-4.632,9.574-4.067c3.071,0.396,6.239,0.071,9.851,0.071c-0.527-1.163-0.899-2.016-1.271-2.844
		c-1.14-2.495-0.66-3.407,2.004-3.119c3.479,0.348,6.946,0.924,10.378,1.656c1.788,0.384,2.472,0.048,2.388-1.764
		c-0.252-6.72-0.192-13.378-3.791-19.581c-2.676-4.661-2.448-10.187-3.072-15.412c-0.588-5.417-1.919-10.414-6.503-14.296
		c-3.503-2.976-6.095-7.007-9.19-10.456c-2.243-2.447-4.631-4.709-6.947-7.043c-1.008-1.02-1.667-1.08-2.723,0.234
		c-2.832,3.563-6.587,5.896-11.23,5.717c-9.383-0.384-15.586-9.341-12.227-17.889c0.3-0.792,0.444-1.872,0.156-2.646
		c-2.279-6.312-1.368-12.185,2.88-17.224c2.136-2.544,3.239-5.394,3.911-8.393c2.376-10.564,9.263-16.474,19.209-19.521
		c2.268-0.689,4.247-2.1,6.467-2.825c10.019-3.258,19.341,1.277,23.78,9.335c1.296,2.375,1.956,5.11,2.976,7.654
		c0.912,2.262,2.279,4.415,2.808,6.761c0.528,2.616,0.552,5.417,0.276,8.093c-0.156,1.368,0.035,2.226,0.827,3.294
		c2.088,2.813,4.224,5.627,5.939,8.662c1.056,1.866,1.355,4.14,2.063,6.215c0.504,1.512,0.852,3.162,1.691,4.476
		c1.344,2.088,1.932,4.247,1.98,6.683c0.035,1.08,0.468,2.311,1.115,3.192c3.695,5.039,2.544,14.193-2.592,19.515
		c-0.359,0.366-0.659,0.773-0.983,1.151C152.997,120.461,153.045,120.683,153.129,120.917z"/>
</g>
</svg>
